  0
SECTION
  2
HEADER
  9
$LIMMIN
 10
0.000000
 20
0.000000
  9
$LIMMAX
 10
287.000031
 20
200.000000
  9
$EXTMIN
 10
0.000000
 20
0.000000
  9
$EXTMAX
 10
287.000031
 20
200.000000
  9
$ANGBASE
 50
0.000000
  9
$ANGDIR
 70
0
  9
$INSUNITS
 70
4
  9
$DIMALT
 70
4
  9
$DIMLUNIT
 70
2
  9
$DIMASZ
 40
3.000000
  9
$DIMTXT
 40
5.000000
  9
$DIMRND
 40
0.010000
  9
$DIMEXE
 40
2.000000
  9
$DIMEXO
 40
2.000000
  9
$DIMAUNIT
 70
0
  9
$DIMADEC
 70
2
  9
$GRIDUNIT
 10
0.001000
 20
0.001000
  9
$PLIMMIN
 10
0.000000
 20
0.000000
  9
$PLIMMAX
 10
297.000000
 20
210.000000
  9
$PSVPSCALE
 40
1.000000
  0
ENDSEC
  0
SECTION
  2
TABLES
  0
TABLE
  2
LTYPE
 70
     1
  0
LTYPE
  2
CONTINUOUS
 70
    64
  3
Ausgez
 72
    65
 73
  0
 40
0.000000
  0
ENDTAB
  0
TABLE
  2
LAYER
 70
     1
  0
LAYER
  2
default
 70
    64
 39
0
 62
0
  6
CONTINUOUS
  0
LAYER
  2
border
 70
    64
 39
0
 62
0
  6
CONTINUOUS
  0
LAYER
  2
contour
 70
    64
 39
0
 62
0
  6
CONTINUOUS
  0
LAYER
  2
auxiliary
 70
    64
 39
0
 62
0
  6
CONTINUOUS
  0
LAYER
  2
dimension
 70
    64
 39
0
 62
0
  6
CONTINUOUS
  0
ENDTAB
  0
ENDSEC
  0
SECTION
  2
BLOCKS
  0
ENDSEC
  0
SECTION
  2
ENTITIES
  0
LINE
  8
border
  6
CONTINUOUS
 10
241.000031
 20
10.000061
 11
241.000031
 21
23.000046
 39
2
 62
0
  0
LINE
  8
border
  6
CONTINUOUS
 10
107.000031
 20
23.000031
 11
287.000031
 21
23.000061
 39
2
 62
0
  0
LINE
  8
border
  6
CONTINUOUS
 10
147.000031
 20
10.000061
 11
147.000031
 21
35.000031
 39
2
 62
0
  0
TEXT
  8
border
  6
CONTINUOUS
 10
283.000000
 20
13.000000
 40
5.000000
 50
0.000000
 72
2
  7
cursive#0.500000#3.000000
  1
8 1601 09127
 39
2
 62
0
  0
LINE
  8
border
  6
CONTINUOUS
 10
272.000031
 20
39.000061
 11
287.000031
 21
39.000061
 39
2
 62
0
  0
LINE
  8
border
  6
CONTINUOUS
 10
107.000031
 20
35.000023
 11
272.000031
 21
35.000061
 39
2
 62
0
  0
LINE
  8
border
  6
CONTINUOUS
 10
274.000000
 20
36.000000
 11
274.000000
 21
34.000000
 39
2
 62
0
  0
LINE
  8
border
  6
CONTINUOUS
 10
278.000000
 20
37.000000
 11
278.000000
 21
33.000000
 39
2
 62
0
  0
LINE
  8
border
  6
CONTINUOUS
 10
278.000000
 20
33.000000
 11
274.000000
 21
34.000000
 39
2
 62
0
  0
LINE
  8
border
  6
CONTINUOUS
 10
274.000000
 20
36.000000
 11
278.000000
 21
37.000000
 39
2
 62
0
  0
CIRCLE
  8
border
  6
CONTINUOUS
 10
283.000000
 20
35.000000
 40
2.000000
 39
2
 62
0
  0
CIRCLE
  8
border
  6
CONTINUOUS
 10
283.000000
 20
35.000000
 40
1.000000
 39
2
 62
0
  0
TEXT
  8
border
  6
CONTINUOUS
 10
279.500000
 20
41.000000
 40
5.000000
 50
0.000000
 72
1
  7
normal#1.000000#3.000000
  1
1:1
 39
2
 62
0
  0
LINE
  8
border
  6
CONTINUOUS
 10
107.000031
 20
51.000015
 11
287.000031
 21
51.000061
 39
2
 62
0
  0
LINE
  8
border
  6
CONTINUOUS
 10
257.000031
 20
23.000061
 11
257.000031
 21
31.000053
 39
2
 62
0
  0
LINE
  8
border
  6
CONTINUOUS
 10
165.000031
 20
23.000031
 11
165.000031
 21
27.000031
 39
0
 62
0
  0
LINE
  8
border
  6
CONTINUOUS
 10
197.000031
 20
31.000046
 11
287.000031
 21
31.000061
 39
2
 62
0
  0
LINE
  8
border
  6
CONTINUOUS
 10
147.000031
 20
27.000031
 11
197.000031
 21
27.000046
 39
2
 62
0
  0
LINE
  8
border
  6
CONTINUOUS
 10
107.000031
 20
27.000031
 11
147.000031
 21
27.000031
 39
1
 62
0
  0
LINE
  8
border
  6
CONTINUOUS
 10
107.000031
 20
31.000023
 11
147.000031
 21
31.000031
 39
1
 62
0
  0
TEXT
  8
border
  6
CONTINUOUS
 10
258.999969
 20
27.999954
 40
1.500000
 50
0.000000
 72
0
  7
normal#0.300000#0.900000
  1
Pages
 39
1
 62
0
  0
TEXT
  8
border
  6
CONTINUOUS
 10
273.999969
 20
27.999954
 40
1.500000
 50
0.000000
 72
0
  7
normal#0.300000#0.900000
  1
Page
 39
1
 62
0
  0
TEXT
  8
border
  6
CONTINUOUS
 10
149.000000
 20
20.000000
 40
1.500000
 50
0.000000
 72
0
  7
normal#0.300000#0.900000
  1
Name
 39
1
 62
0
  0
LINE
  8
border
  6
DASHDOT
 10
273.000000
 20
35.000000
 11
286.000000
 21
35.000000
 39
1
 62
0
  0
LINE
  8
border
  6
DASHDOT
 10
283.000000
 20
38.000000
 11
283.000000
 21
32.000000
 39
1
 62
0
  0
TEXT
  8
border
  6
CONTINUOUS
 10
273.999969
 20
47.999954
 40
1.500000
 50
0.000000
 72
0
  7
normal#0.300000#0.900000
  1
Scale
 39
1
 62
0
  0
LINE
  8
border
  6
CONTINUOUS
 10
215.000031
 20
51.000046
 11
215.000031
 21
23.000046
 39
1
 62
0
  0
LINE
  8
border
  6
CONTINUOUS
 10
197.000031
 20
27.000046
 11
257.000031
 21
27.000061
 39
1
 62
0
  0
TEXT
  8
border
  6
CONTINUOUS
 10
199.000000
 20
24.000000
 40
2.000000
 50
0.000000
 72
0
  7
normal#0.400000#1.200000
  1
Replaces
 39
1
 62
0
  0
TEXT
  8
border
  6
CONTINUOUS
 10
199.000000
 20
28.000000
 40
2.000000
 50
0.000000
 72
0
  7
normal#0.400000#1.200000
  1
Source
 39
1
 62
0
  0
TEXT
  8
border
  6
CONTINUOUS
 10
199.000000
 20
36.000000
 40
2.000000
 50
0.000000
 72
0
  7
normal#0.400000#1.200000
  1
Released
 39
1
 62
0
  0
TEXT
  8
border
  6
CONTINUOUS
 10
199.000000
 20
40.000000
 40
2.000000
 50
0.000000
 72
0
  7
normal#0.400000#1.200000
  1
Norm proven
 39
1
 62
0
  0
TEXT
  8
border
  6
CONTINUOUS
 10
199.000000
 20
44.000000
 40
2.000000
 50
0.000000
 72
0
  7
normal#0.400000#1.200000
  1
Proven
 39
1
 62
0
  0
TEXT
  8
border
  6
CONTINUOUS
 10
199.000000
 20
32.000000
 40
2.000000
 50
0.000000
 72
0
  7
normal#0.400000#1.200000
  1
Order number
 39
1
 62
0
  0
TEXT
  8
border
  6
CONTINUOUS
 10
199.000000
 20
48.000000
 40
2.000000
 50
0.000000
 72
0
  7
normal#0.400000#1.200000
  1
Drawn
 39
1
 62
0
  0
LINE
  8
border
  6
CONTINUOUS
 10
197.000031
 20
51.000038
 11
197.000031
 21
23.000046
 39
2
 62
0
  0
LINE
  8
border
  6
CONTINUOUS
 10
107.000031
 20
10.000061
 11
107.000031
 21
65.000023
 39
2
 62
0
  0
LINE
  8
border
  6
CONTINUOUS
 10
272.000031
 20
23.000061
 11
272.000031
 21
65.000061
 39
2
 62
0
  0
TEXT
  8
border
  6
CONTINUOUS
 10
243.000000
 20
20.000000
 40
1.500000
 50
0.000000
 72
0
  7
normal#0.300000#0.900000
  1
ID
 39
1
 62
0
  0
LINE
  8
border
  6
CONTINUOUS
 10
152.000031
 20
35.000031
 11
152.000031
 21
51.000031
 39
2
 62
0
  0
LINE
  8
border
  6
CONTINUOUS
 10
121.000031
 20
35.000023
 11
121.000031
 21
51.000015
 39
1
 62
0
  0
LINE
  8
border
  6
CONTINUOUS
 10
125.000031
 20
35.000031
 11
125.000031
 21
51.000015
 39
1
 62
0
  0
LINE
  8
border
  6
CONTINUOUS
 10
121.000031
 20
47.000023
 11
152.000031
 21
47.000031
 39
1
 62
0
  0
LINE
  8
border
  6
CONTINUOUS
 10
121.000031
 20
43.000023
 11
152.000031
 21
43.000031
 39
1
 62
0
  0
LINE
  8
border
  6
CONTINUOUS
 10
121.000031
 20
39.000023
 11
152.000031
 21
39.000031
 39
1
 62
0
  0
LINE
  8
border
  6
CONTINUOUS
 10
166.000031
 20
35.000031
 11
166.000031
 21
51.000031
 39
1
 62
0
  0
LINE
  8
border
  6
CONTINUOUS
 10
170.000031
 20
35.000031
 11
170.000031
 21
51.000031
 39
1
 62
0
  0
LINE
  8
border
  6
CONTINUOUS
 10
166.000031
 20
47.000031
 11
272.000031
 21
47.000061
 39
1
 62
0
  0
LINE
  8
border
  6
CONTINUOUS
 10
166.000031
 20
43.000031
 11
272.000031
 21
43.000061
 39
1
 62
0
  0
LINE
  8
border
  6
CONTINUOUS
 10
166.000031
 20
39.000031
 11
272.000031
 21
39.000061
 39
1
 62
0
  0
TEXT
  8
border
  6
CONTINUOUS
 10
109.000000
 20
43.000000
 40
2.000000
 50
0.000000
 72
0
  7
normal#0.400000#1.200000
  1
Changed
 39
1
 62
0
  0
TEXT
  8
border
  6
CONTINUOUS
 10
154.000000
 20
43.000000
 40
2.000000
 50
0.000000
 72
0
  7
normal#0.400000#1.200000
  1
Changed
 39
1
 62
0
  0
LINE
  8
border
  6
CONTINUOUS
 10
242.000031
 20
51.000046
 11
242.000015
 21
35.000053
 39
1
 62
0
  0
TEXT
  8
border
  6
CONTINUOUS
 10
127.000000
 20
13.000000
 40
5.000000
 50
0.000000
 72
1
  7
cursive#0.500000#3.000000
  1
APS
 39
2
 62
0
  0
TEXT
  8
border
  6
CONTINUOUS
 10
109.000000
 20
20.000000
 40
1.500000
 50
0.000000
 72
0
  7
normal#0.300000#0.900000
  1
Firm
 39
1
 62
0
  0
LINE
  8
border
  6
CONTINUOUS
 10
107.000031
 20
57.000015
 11
287.000031
 21
57.000061
 39
2
 62
0
  0
TEXT
  8
border
  6
CONTINUOUS
 10
109.000000
 20
53.000000
 40
2.000000
 50
0.000000
 72
0
  7
normal#0.400000#1.200000
  1
Pos.
 39
1
 62
0
  0
TEXT
  8
border
  6
CONTINUOUS
 10
119.000000
 20
53.000000
 40
2.000000
 50
0.000000
 72
0
  7
normal#0.400000#1.200000
  1
Num.
 39
1
 62
0
  0
TEXT
  8
border
  6
CONTINUOUS
 10
129.000000
 20
53.000000
 40
2.000000
 50
0.000000
 72
0
  7
normal#0.400000#1.200000
  1
Unit
 39
1
 62
0
  0
TEXT
  8
border
  6
CONTINUOUS
 10
139.000000
 20
53.000000
 40
2.000000
 50
0.000000
 72
0
  7
normal#0.400000#1.200000
  1
Article Code
 39
1
 62
0
  0
TEXT
  8
border
  6
CONTINUOUS
 10
149.000000
 20
24.000000
 40
2.000000
 50
0.000000
 72
0
  7
normal#0.400000#1.200000
  1
Article Code
 39
1
 62
0
  0
TEXT
  8
border
  6
CONTINUOUS
 10
179.000000
 20
53.000000
 40
2.000000
 50
0.000000
 72
0
  7
normal#0.400000#1.200000
  1
Description
 39
1
 62
0
  0
LINE
  8
border
  6
CONTINUOUS
 10
107.000031
 20
63.000015
 11
287.000031
 21
63.000061
 39
1
 62
0
  0
LINE
  8
border
  6
CONTINUOUS
 10
117.000031
 20
51.000015
 11
117.000031
 21
65.000023
 39
2
 62
0
  0
LINE
  8
border
  6
CONTINUOUS
 10
127.000031
 20
51.000015
 11
127.000031
 21
65.000023
 39
2
 62
0
  0
LINE
  8
border
  6
CONTINUOUS
 10
137.000031
 20
51.000015
 11
137.000031
 21
65.000023
 39
2
 62
0
  0
LINE
  8
border
  6
CONTINUOUS
 10
177.000031
 20
51.000015
 11
177.000031
 21
65.000023
 39
2
 62
0
  0
TEXT
  8
border
  6
CONTINUOUS
 10
217.000000
 20
48.000000
 40
2.000000
 50
0.000000
 72
0
  7
normal#0.400000#1.200000
  1
1999-09-30
 39
1
 62
0
  0
TEXT
  8
border
  6
CONTINUOUS
 10
217.000000
 20
44.000000
 40
2.000000
 50
0.000000
 72
0
  7
normal#0.400000#1.200000
  1
1999-09-30
 39
1
 62
0
  0
TEXT
  8
border
  6
CONTINUOUS
 10
217.000000
 20
40.000000
 40
2.000000
 50
0.000000
 72
0
  7
normal#0.400000#1.200000
  1
1999-09-30
 39
1
 62
0
  0
TEXT
  8
border
  6
CONTINUOUS
 10
217.000000
 20
36.000000
 40
2.000000
 50
0.000000
 72
0
  7
normal#0.400000#1.200000
  1
1999-09-30
 39
1
 62
0
  0
LINE
  8
border
  6
CONTINUOUS
 10
10.000000
 20
10.000000
 11
287.000031
 21
10.000061
 39
2
 62
0
  0
LINE
  8
border
  6
CONTINUOUS
 10
287.000031
 20
10.000061
 11
287.000000
 21
200.000000
 39
2
 62
0
  0
LINE
  8
border
  6
CONTINUOUS
 10
10.000000
 20
200.000000
 11
10.000000
 21
10.000000
 39
2
 62
0
  0
LINE
  8
border
  6
CONTINUOUS
 10
287.000000
 20
200.000000
 11
10.000000
 21
200.000000
 39
2
 62
0
  0
LINE
  8
contour
  6
CONTINUOUS
 10
48.000000
 20
150.000000
 11
48.000000
 21
126.000000
 39
2
 62
0
  0
LINE
  8
contour
  6
CONTINUOUS
 10
22.000000
 20
126.000000
 11
22.000000
 21
150.000000
 39
2
 62
0
  0
LINE
  8
contour
  6
CONTINUOUS
 10
22.000000
 20
150.000000
 11
20.000000
 21
148.000000
 39
2
 62
0
  0
LINE
  8
contour
  6
CONTINUOUS
 10
20.000000
 20
128.000000
 11
22.000000
 21
126.000000
 39
2
 62
0
  0
LINE
  8
contour
  6
CONTINUOUS
 10
20.000000
 20
128.000000
 11
20.000000
 21
148.000000
 39
2
 62
0
  0
LINE
  8
contour
  6
CONTINUOUS
 10
50.000000
 20
138.000000
 11
76.000000
 21
138.000000
 39
2
 62
0
  0
LINE
  8
contour
  6
CONTINUOUS
 10
50.000000
 20
125.000000
 11
76.000000
 21
125.000000
 39
2
 62
0
  0
LINE
  8
contour
  6
CONTINUOUS
 10
76.000000
 20
156.000000
 11
88.000000
 21
168.000000
 39
2
 62
0
  0
LINE
  8
contour
  6
CONTINUOUS
 10
50.000000
 20
168.000000
 11
72.000000
 21
190.000000
 39
2
 62
0
  0
LINE
  8
contour
  6
CONTINUOUS
 10
76.000000
 20
156.000000
 11
76.000000
 21
93.000000
 39
2
 62
0
  0
LINE
  8
contour
  6
CONTINUOUS
 10
50.000000
 20
168.000000
 11
50.000000
 21
120.000000
 39
2
 62
0
  0
LINE
  8
contour
  6
CONTINUOUS
 10
50.000000
 20
120.000000
 11
63.000000
 21
107.000000
 39
2
 62
0
  0
LINE
  8
contour
  6
CONTINUOUS
 10
63.000000
 20
68.000000
 11
88.000000
 21
68.000000
 39
2
 62
0
  0
LINE
  8
contour
  6
CONTINUOUS
 10
63.000000
 20
68.000000
 11
63.000000
 21
107.000000
 39
2
 62
0
  0
LINE
  8
contour
  6
CONTINUOUS
 10
88.000000
 20
93.000000
 11
88.000000
 21
68.000000
 39
2
 62
0
  0
LINE
  8
auxiliary
  6
DASHDOT
 10
91.000000
 20
81.000000
 11
60.000000
 21
81.000000
 39
1
 62
12
  0
LINE
  8
contour
  6
CONTINUOUS
 10
76.000000
 20
93.000000
 11
276.000000
 21
93.000000
 39
2
 62
0
  0
LINE
  8
contour
  6
CONTINUOUS
 10
88.000000
 20
168.000000
 11
88.000000
 21
172.000000
 39
2
 62
0
  0
LINE
  8
auxiliary
  6
DASHDOT
 10
93.000000
 20
182.000000
 11
66.000000
 21
182.000000
 39
1
 62
12
  0
DIMENSION
  8
dimension
  6
CONTINUOUS
  1
 
 10
99.000000
 20
85.500000
 13
88.000000
 23
85.500000
 14
88.000000
 24
76.500000
 50
90.000000
 70
0
 39
1
 62
0
  0
LINE
  8
contour
  6
DASH
 10
88.000000
 20
85.500000
 11
63.000000
 21
85.500000
 39
2
 62
0
  0
LINE
  8
contour
  6
DASH
 10
88.000000
 20
76.500000
 11
63.000000
 21
76.500000
 39
2
 62
0
  0
LINE
  8
contour
  6
CONTINUOUS
 10
63.000000
 20
69.000000
 11
88.000000
 21
69.000000
 39
2
 62
0
  0
LINE
  8
contour
  6
CONTINUOUS
 10
90.000000
 20
172.000000
 11
90.000000
 21
192.000000
 39
2
 62
0
  0
LINE
  8
contour
  6
CONTINUOUS
 10
79.500000
 20
192.000000
 11
78.000000
 21
190.500000
 39
2
 62
0
  0
LINE
  8
contour
  6
CONTINUOUS
 10
79.500000
 20
192.000000
 11
90.000000
 21
192.000000
 39
2
 62
0
  0
LINE
  8
contour
  6
CONTINUOUS
 10
78.000000
 20
173.500000
 11
79.500000
 21
172.000000
 39
2
 62
0
  0
LINE
  8
contour
  6
CONTINUOUS
 10
78.000000
 20
172.000000
 11
78.000000
 21
190.500000
 39
2
 62
0
  0
LINE
  8
contour
  6
CONTINUOUS
 10
78.000000
 20
172.000000
 11
90.000000
 21
172.000000
 39
2
 62
0
  0
LINE
  8
contour
  6
DASH
 10
90.000000
 20
187.000000
 11
85.000000
 21
187.000000
 39
1
 62
0
  0
LINE
  8
contour
  6
DASH
 10
90.000000
 20
177.000000
 11
85.000000
 21
177.000000
 39
1
 62
0
  0
LINE
  8
contour
  6
DASH
 10
85.000000
 20
177.000000
 11
85.000000
 21
187.000000
 39
1
 62
0
  0
LINE
  8
contour
  6
DASH
 10
71.000000
 20
179.500000
 11
71.000000
 21
184.500000
 39
1
 62
0
  0
LINE
  8
contour
  6
DASH
 10
85.000000
 20
179.500000
 11
71.000000
 21
179.500000
 39
1
 62
0
  0
LINE
  8
contour
  6
DASH
 10
85.000000
 20
184.500000
 11
71.000000
 21
184.500000
 39
1
 62
0
  0
LINE
  8
contour
  6
DASH
 10
69.000000
 20
180.000000
 11
69.000000
 21
184.000000
 39
1
 62
0
  0
LINE
  8
contour
  6
DASH
 10
69.000000
 20
184.000000
 11
68.000000
 21
182.000000
 39
1
 62
0
  0
LINE
  8
contour
  6
DASH
 10
68.000000
 20
182.000000
 11
69.000000
 21
180.000000
 39
1
 62
0
  0
LINE
  8
contour
  6
CONTINUOUS
 10
276.000000
 20
121.000000
 11
276.000000
 21
93.000000
 39
2
 62
0
  0
LINE
  8
contour
  6
CONTINUOUS
 10
50.000000
 20
168.000000
 11
88.000000
 21
168.000000
 39
2
 62
0
  0
LINE
  8
contour
  6
CONTINUOUS
 10
50.000000
 20
156.000000
 11
75.999999
 21
156.000000
 39
2
 62
0
  0
LINE
  8
contour
  6
CONTINUOUS
 10
168.000000
 20
156.000000
 11
203.000000
 21
156.000000
 39
2
 62
0
  0
LINE
  8
contour
  6
CONTINUOUS
 10
72.000000
 20
190.000000
 11
78.000000
 21
190.000000
 39
2
 62
0
  0
LINE
  8
contour
  6
CONTINUOUS
 10
154.000000
 20
172.000000
 11
154.000000
 21
192.000000
 39
2
 62
0
  0
LINE
  8
contour
  6
CONTINUOUS
 10
164.500000
 20
192.000000
 11
165.999992
 21
190.500000
 39
2
 62
0
  0
LINE
  8
contour
  6
CONTINUOUS
 10
164.500000
 20
192.000000
 11
154.000000
 21
192.000000
 39
2
 62
0
  0
LINE
  8
contour
  6
CONTINUOUS
 10
165.999992
 20
173.500000
 11
164.500000
 21
172.000000
 39
2
 62
0
  0
LINE
  8
contour
  6
CONTINUOUS
 10
166.000000
 20
172.000000
 11
165.999992
 21
190.500000
 39
2
 62
0
  0
LINE
  8
contour
  6
CONTINUOUS
 10
166.000000
 20
172.000000
 11
154.000000
 21
172.000000
 39
2
 62
0
  0
LINE
  8
contour
  6
DASH
 10
154.000000
 20
187.000000
 11
159.000000
 21
187.000000
 39
1
 62
0
  0
LINE
  8
contour
  6
DASH
 10
154.000000
 20
177.000000
 11
159.000000
 21
177.000000
 39
1
 62
0
  0
LINE
  8
contour
  6
DASH
 10
159.000000
 20
177.000000
 11
159.000000
 21
187.000000
 39
1
 62
0
  0
LINE
  8
contour
  6
CONTINUOUS
 10
165.999992
 20
190.000000
 11
169.000000
 21
190.000000
 39
2
 62
0
  0
LINE
  8
contour
  6
CONTINUOUS
 10
156.000000
 20
168.000000
 11
191.000000
 21
168.000000
 39
2
 62
0
  0
LINE
  8
contour
  6
DASH
 10
76.000000
 20
120.000000
 11
168.000000
 21
120.000002
 39
2
 62
0
  0
LINE
  8
contour
  6
DASH
 10
226.000000
 20
120.000000
 11
276.000000
 21
120.000000
 39
2
 62
0
  0
LINE
  8
contour
  6
CONTINUOUS
 10
226.000000
 20
121.000000
 11
276.000000
 21
121.000000
 39
2
 62
0
  0
LINE
  8
contour
  6
CONTINUOUS
 10
76.000000
 20
121.000000
 11
168.000000
 21
121.000000
 39
2
 62
0
  0
LINE
  8
contour
  6
DASH
 10
171.999992
 20
179.500000
 11
172.000000
 21
184.500000
 39
1
 62
0
  0
LINE
  8
contour
  6
DASH
 10
159.000000
 20
179.500000
 11
171.999992
 21
179.500000
 39
1
 62
0
  0
LINE
  8
contour
  6
DASH
 10
159.000000
 20
184.500000
 11
172.000000
 21
184.500000
 39
1
 62
0
  0
LINE
  8
contour
  6
DASH
 10
174.000000
 20
180.000000
 11
174.000000
 21
184.000000
 39
1
 62
0
  0
LINE
  8
contour
  6
DASH
 10
174.000000
 20
184.000000
 11
175.000000
 21
182.000000
 39
1
 62
0
  0
LINE
  8
contour
  6
DASH
 10
175.000000
 20
182.000000
 11
174.000000
 21
180.000000
 39
1
 62
0
  0
LINE
  8
contour
  6
DASH
 10
159.000000
 20
184.000000
 11
174.000000
 21
184.000000
 39
1
 62
0
  0
LINE
  8
contour
  6
DASH
 10
159.000000
 20
180.000000
 11
174.000000
 21
180.000000
 39
1
 62
0
  0
LINE
  8
contour
  6
DASH
 10
85.000000
 20
184.000000
 11
69.000000
 21
184.000000
 39
1
 62
0
  0
LINE
  8
contour
  6
DASH
 10
85.000000
 20
180.000000
 11
69.000000
 21
180.000000
 39
1
 62
0
  0
LINE
  8
contour
  6
DASH
 10
173.000000
 20
94.000000
 11
173.000000
 21
99.000000
 39
1
 62
0
  0
LINE
  8
contour
  6
DASH
 10
183.000000
 20
94.000000
 11
183.000000
 21
99.000000
 39
1
 62
0
  0
LINE
  8
contour
  6
DASH
 10
183.000000
 20
99.000000
 11
173.000000
 21
99.000000
 39
1
 62
0
  0
LINE
  8
contour
  6
DASH
 10
180.500000
 20
111.999992
 11
175.500000
 21
112.000000
 39
1
 62
0
  0
LINE
  8
contour
  6
DASH
 10
180.500000
 20
99.000000
 11
180.500000
 21
111.999992
 39
1
 62
0
  0
LINE
  8
contour
  6
DASH
 10
175.500000
 20
99.000000
 11
175.500000
 21
112.000000
 39
1
 62
0
  0
LINE
  8
contour
  6
DASH
 10
180.000000
 20
114.000000
 11
176.000000
 21
114.000000
 39
1
 62
0
  0
LINE
  8
contour
  6
DASH
 10
176.000000
 20
114.000000
 11
178.000000
 21
115.000000
 39
1
 62
0
  0
LINE
  8
contour
  6
DASH
 10
178.000000
 20
115.000000
 11
180.000000
 21
114.000000
 39
1
 62
0
  0
LINE
  8
contour
  6
DASH
 10
176.000000
 20
99.000000
 11
176.000000
 21
114.000000
 39
1
 62
0
  0
LINE
  8
contour
  6
DASH
 10
180.000000
 20
99.000000
 11
180.000000
 21
114.000000
 39
1
 62
0
  0
LINE
  8
contour
  6
DASH
 10
211.000000
 20
94.000000
 11
211.000000
 21
99.000000
 39
1
 62
0
  0
LINE
  8
contour
  6
DASH
 10
221.000000
 20
94.000000
 11
221.000000
 21
99.000000
 39
1
 62
0
  0
LINE
  8
contour
  6
DASH
 10
221.000000
 20
99.000000
 11
211.000000
 21
99.000000
 39
1
 62
0
  0
LINE
  8
contour
  6
DASH
 10
218.500000
 20
111.999992
 11
213.500000
 21
112.000000
 39
1
 62
0
  0
LINE
  8
contour
  6
DASH
 10
218.500000
 20
99.000000
 11
218.500000
 21
111.999992
 39
1
 62
0
  0
LINE
  8
contour
  6
DASH
 10
213.500000
 20
99.000000
 11
213.500000
 21
112.000000
 39
1
 62
0
  0
LINE
  8
contour
  6
DASH
 10
218.000000
 20
114.000000
 11
214.000000
 21
114.000000
 39
1
 62
0
  0
LINE
  8
contour
  6
DASH
 10
214.000000
 20
114.000000
 11
216.000000
 21
115.000000
 39
1
 62
0
  0
LINE
  8
contour
  6
DASH
 10
216.000000
 20
115.000000
 11
218.000000
 21
114.000000
 39
1
 62
0
  0
LINE
  8
contour
  6
DASH
 10
214.000000
 20
99.000000
 11
214.000000
 21
114.000000
 39
1
 62
0
  0
LINE
  8
contour
  6
DASH
 10
218.000000
 20
99.000000
 11
218.000000
 21
114.000000
 39
1
 62
0
  0
LINE
  8
contour
  6
CONTINUOUS
 10
168.000000
 20
156.000000
 11
168.000000
 21
94.000000
 39
2
 62
0
  0
LINE
  8
contour
  6
CONTINUOUS
 10
168.000000
 20
94.000000
 11
226.000000
 21
94.000000
 39
2
 62
0
  0
LINE
  8
contour
  6
CONTINUOUS
 10
168.000000
 20
122.999998
 11
226.000000
 21
122.999998
 39
2
 62
0
  0
LINE
  8
contour
  6
CONTINUOUS
 10
168.000000
 20
156.000000
 11
156.000000
 21
168.000000
 39
2
 62
0
  0
ARC
  8
contour
  6
CONTINUOUS
 10
203.000000
 20
164.000000
 40
8.000000
 50
180.000000
 51
262.875000
 39
2
 62
0
  0
LINE
  8
contour
  6
CONTINUOUS
 10
195.000000
 20
164.000000
 11
169.000000
 21
190.000000
 39
2
 62
0
  0
LINE
  8
contour
  6
CONTINUOUS
 10
156.000000
 20
168.000000
 11
156.000000
 21
172.000000
 39
2
 62
0
  0
LINE
  8
contour
  6
CONTINUOUS
 10
203.000000
 20
157.000000
 11
203.000000
 21
163.000000
 39
0
 62
0
  0
LINE
  8
contour
  6
CONTINUOUS
 10
76.000000
 20
111.000000
 11
168.000000
 21
110.999998
 39
2
 62
0
  0
LINE
  8
contour
  6
CONTINUOUS
 10
226.000000
 20
111.000000
 11
276.000000
 21
111.000000
 39
2
 62
0
  0
LINE
  8
contour
  6
CONTINUOUS
 10
226.000000
 20
103.000000
 11
276.000000
 21
103.000000
 39
2
 62
0
  0
LINE
  8
contour
  6
CONTINUOUS
 10
76.000000
 20
103.000000
 11
226.000000
 21
103.000000
 39
2
 62
0
  0
LINE
  8
contour
  6
DASH
 10
50.000000
 20
128.000000
 11
58.000000
 21
128.000001
 39
2
 62
0
  0
LINE
  8
contour
  6
DASH
 10
58.000000
 20
148.000000
 11
58.000000
 21
128.000001
 39
2
 62
0
  0
LINE
  8
contour
  6
DASH
 10
50.000000
 20
148.000000
 11
58.000000
 21
148.000000
 39
2
 62
0
  0
LINE
  8
contour
  6
DASH
 10
58.000000
 20
144.000000
 11
76.000000
 21
144.000000
 39
2
 62
0
  0
LINE
  8
contour
  6
DASH
 10
58.000000
 20
132.000000
 11
76.000000
 21
132.000000
 39
2
 62
0
  0
LINE
  8
contour
  6
DASH
 10
50.000000
 20
147.500000
 11
58.000000
 21
147.500000
 39
2
 62
0
  0
LINE
  8
contour
  6
DASH
 10
50.000000
 20
128.499999
 11
58.000000
 21
128.500000
 39
2
 62
0
  0
LINE
  8
contour
  6
CONTINUOUS
 10
48.000000
 20
144.000000
 11
50.000000
 21
144.000000
 39
2
 62
0
  0
LINE
  8
contour
  6
CONTINUOUS
 10
48.000000
 20
132.000000
 11
50.000000
 21
132.000000
 39
2
 62
0
  0
LINE
  8
contour
  6
CONTINUOUS
 10
112.000000
 20
144.000000
 11
112.000000
 21
132.000000
 39
2
 62
0
  0
LINE
  8
contour
  6
CONTINUOUS
 10
102.000000
 20
144.000000
 11
102.000000
 21
132.000000
 39
2
 62
0
  0
ARC
  8
contour
  6
CONTINUOUS
 10
104.000002
 20
144.000000
 40
2.000000
 50
180.000000
 51
270.000000
 39
2
 62
0
  0
ARC
  8
contour
  6
CONTINUOUS
 10
104.000000
 20
132.000000
 40
2.000000
 50
90.000000
 51
180.000000
 39
2
 62
0
  0
ARC
  8
contour
  6
CONTINUOUS
 10
110.000000
 20
132.000000
 40
2.000000
 50
0.000000
 51
90.000000
 39
2
 62
0
  0
ARC
  8
contour
  6
CONTINUOUS
 10
110.000004
 20
144.000000
 40
2.000000
 50
270.000000
 51
0.000000
 39
2
 62
0
  0
LINE
  8
contour
  6
CONTINUOUS
 10
104.000000
 20
141.000000
 11
104.000000
 21
135.000000
 39
0
 62
0
  0
LINE
  8
contour
  6
CONTINUOUS
 10
110.000000
 20
141.000000
 11
110.000000
 21
135.000000
 39
0
 62
0
  0
LINE
  8
contour
  6
CONTINUOUS
 10
104.000002
 20
142.000000
 11
110.000004
 21
142.000000
 39
2
 62
0
  0
LINE
  8
contour
  6
CONTINUOUS
 10
104.000000
 20
134.000000
 11
110.000000
 21
134.000000
 39
2
 62
0
  0
LINE
  8
contour
  6
CONTINUOUS
 10
110.000004
 20
142.000000
 11
168.000000
 21
142.000000
 39
1
 62
0
  0
LINE
  8
contour
  6
CONTINUOUS
 10
110.000000
 20
134.000000
 11
168.000000
 21
134.000000
 39
1
 62
0
  0
LINE
  8
contour
  6
CONTINUOUS
 10
226.000000
 20
142.000000
 11
276.000000
 21
142.000000
 39
1
 62
0
  0
LINE
  8
contour
  6
CONTINUOUS
 10
226.000000
 20
134.000000
 11
276.000000
 21
134.000000
 39
1
 62
0
  0
LINE
  8
contour
  6
DASH
 10
168.000000
 20
144.000000
 11
226.000000
 21
144.000000
 39
2
 62
0
  0
LINE
  8
contour
  6
DASH
 10
168.000000
 20
142.000000
 11
226.000000
 21
142.000000
 39
1
 62
0
  0
LINE
  8
contour
  6
DASH
 10
168.000000
 20
134.000000
 11
226.000000
 21
134.000000
 39
1
 62
0
  0
LINE
  8
contour
  6
DASH
 10
168.000000
 20
132.000000
 11
226.000000
 21
132.000000
 39
2
 62
0
  0
LINE
  8
contour
  6
CONTINUOUS
 10
168.000000
 20
138.000000
 11
226.000000
 21
138.000000
 39
2
 62
0
  0
LINE
  8
contour
  6
CONTINUOUS
 10
112.000000
 20
144.000000
 11
168.000000
 21
144.000000
 39
2
 62
0
  0
LINE
  8
contour
  6
CONTINUOUS
 10
76.000000
 20
144.000000
 11
102.000000
 21
144.000000
 39
2
 62
0
  0
LINE
  8
contour
  6
CONTINUOUS
 10
76.000000
 20
132.000000
 11
102.000000
 21
132.000000
 39
2
 62
0
  0
LINE
  8
contour
  6
CONTINUOUS
 10
112.000000
 20
132.000000
 11
168.000000
 21
132.000000
 39
2
 62
0
  0
LINE
  8
contour
  6
CONTINUOUS
 10
276.000000
 20
142.000000
 11
276.000000
 21
134.000000
 39
2
 62
0
  0
LINE
  8
contour
  6
CONTINUOUS
 10
274.000000
 20
132.000000
 11
276.000000
 21
134.000000
 39
2
 62
0
  0
LINE
  8
contour
  6
CONTINUOUS
 10
276.000000
 20
142.000000
 11
274.000000
 21
144.000000
 39
2
 62
0
  0
LINE
  8
contour
  6
CONTINUOUS
 10
274.000000
 20
144.000000
 11
274.000000
 21
132.000000
 39
2
 62
0
  0
LINE
  8
contour
  6
CONTINUOUS
 10
226.000000
 20
144.000000
 11
274.000000
 21
144.000000
 39
2
 62
0
  0
LINE
  8
contour
  6
CONTINUOUS
 10
226.000000
 20
132.000000
 11
274.000000
 21
132.000000
 39
2
 62
0
  0
LINE
  8
contour
  6
DASH
 10
154.000000
 20
186.500000
 11
159.000000
 21
186.500000
 39
1
 62
0
  0
LINE
  8
contour
  6
DASH
 10
154.000000
 20
177.500000
 11
159.000000
 21
177.500000
 39
1
 62
0
  0
LINE
  8
contour
  6
DASH
 10
159.000000
 20
185.000000
 11
165.999992
 21
185.000000
 39
1
 62
0
  0
LINE
  8
contour
  6
DASH
 10
159.000000
 20
179.000000
 11
166.000000
 21
179.000000
 39
1
 62
0
  0
LINE
  8
contour
  6
DASH
 10
90.000000
 20
186.500000
 11
85.000000
 21
186.500000
 39
1
 62
0
  0
LINE
  8
contour
  6
DASH
 10
90.000000
 20
177.500000
 11
85.000000
 21
177.500000
 39
1
 62
0
  0
LINE
  8
contour
  6
DASH
 10
85.000000
 20
179.000000
 11
78.000000
 21
179.000000
 39
1
 62
0
  0
LINE
  8
contour
  6
DASH
 10
85.000000
 20
185.000000
 11
78.000000
 21
185.000000
 39
1
 62
0
  0
LINE
  8
contour
  6
DASH
 10
173.500000
 20
94.000000
 11
173.500000
 21
99.000000
 39
1
 62
0
  0
LINE
  8
contour
  6
DASH
 10
182.500000
 20
94.000000
 11
182.500000
 21
99.000000
 39
1
 62
0
  0
LINE
  8
contour
  6
DASH
 10
211.500000
 20
94.000000
 11
211.500000
 21
99.000000
 39
1
 62
0
  0
LINE
  8
contour
  6
DASH
 10
220.500000
 20
94.000000
 11
220.500000
 21
99.000000
 39
1
 62
0
  0
LINE
  8
contour
  6
CONTINUOUS
 10
214.000000
 20
164.000000
 11
226.000000
 21
152.000000
 39
2
 62
0
  0
LINE
  8
contour
  6
CONTINUOUS
 10
195.000000
 20
164.000000
 11
214.000000
 21
164.000000
 39
2
 62
0
  0
LINE
  8
contour
  6
CONTINUOUS
 10
226.000000
 20
152.000000
 11
226.000000
 21
94.000000
 39
2
 62
0
  0
LINE
  8
contour
  6
DASH
 10
58.000000
 20
112.000000
 11
68.000000
 21
111.999998
 39
2
 62
0
  0
LINE
  8
contour
  6
DASH
 10
68.000000
 20
110.000000
 11
76.000000
 21
110.000000
 39
2
 62
0
  0
LINE
  8
contour
  6
DASH
 10
68.000000
 20
104.000000
 11
76.000000
 21
104.000000
 39
2
 62
0
  0
LINE
  8
contour
  6
DASH
 10
68.000000
 20
111.999998
 11
68.000000
 21
102.000000
 39
2
 62
0
  0
LINE
  8
contour
  6
DASH
 10
63.000000
 20
102.000000
 11
68.000000
 21
102.000000
 39
2
 62
0
  0
LINE
  8
contour
  6
DASH
 10
63.000000
 20
102.750000
 11
68.000000
 21
102.750000
 39
2
 62
0
  0
LINE
  8
contour
  6
CONTINUOUS
 10
62.000000
 20
103.250000
 11
62.500000
 21
102.750000
 39
2
 62
0
  0
LINE
  8
contour
  6
CONTINUOUS
 10
62.000000
 20
108.000000
 11
62.000000
 21
103.250000
 39
2
 62
0
  0
LINE
  8
contour
  6
CONTINUOUS
 10
62.500000
 20
102.750000
 11
63.000000
 21
102.750000
 39
2
 62
0
  0
LINE
  8
contour
  6
DASH
 10
62.000000
 20
110.750000
 11
62.000000
 21
108.000000
 39
2
 62
0
  0
LINE
  8
contour
  6
DASH
 10
62.500000
 20
111.250000
 11
68.000000
 21
111.249998
 39
2
 62
0
  0
LINE
  8
contour
  6
DASH
 10
62.000000
 20
110.750000
 11
62.500000
 21
111.250000
 39
2
 62
0
  0
LINE
  8
contour
  6
DASH
 10
86.000000
 20
107.000000
 11
84.599999
 21
109.500000
 39
1
 62
0
  0
LINE
  8
contour
  6
DASH
 10
84.599999
 20
109.500000
 11
84.599999
 21
104.500000
 39
1
 62
0
  0
LINE
  8
contour
  6
DASH
 10
84.599999
 20
104.500000
 11
86.000000
 21
107.000000
 39
1
 62
0
  0
LINE
  8
contour
  6
DASH
 10
68.000000
 20
109.000000
 11
84.599999
 21
109.000000
 39
1
 62
0
  0
LINE
  8
contour
  6
DASH
 10
68.000000
 20
109.500000
 11
84.599999
 21
109.500000
 39
1
 62
0
  0
LINE
  8
contour
  6
DASH
 10
68.000000
 20
105.000000
 11
84.599999
 21
105.000000
 39
1
 62
0
  0
LINE
  8
contour
  6
DASH
 10
68.000000
 20
104.500000
 11
84.599999
 21
104.500000
 39
1
 62
0
  0
LINE
  8
auxiliary
  6
DASHDOT
 10
151.000000
 20
182.000000
 11
178.000000
 21
182.000000
 39
1
 62
12
  0
LINE
  8
auxiliary
  6
DASHDOT
 10
178.000000
 20
91.000000
 11
178.000000
 21
118.000000
 39
1
 62
12
  0
LINE
  8
auxiliary
  6
DASHDOT
 10
216.000000
 20
91.000000
 11
216.000000
 21
118.000000
 39
1
 62
12
  0
LINE
  8
auxiliary
  6
DASHDOT
 10
60.000000
 20
107.000000
 11
88.000000
 21
107.000000
 39
1
 62
12
  0
LINE
  8
contour
  6
CONTINUOUS
 10
22.000000
 20
150.000000
 11
30.000000
 21
150.000000
 39
2
 62
0
  0
LINE
  8
contour
  6
CONTINUOUS
 10
30.000000
 20
126.000000
 11
22.000000
 21
126.000000
 39
2
 62
0
  0
LINE
  8
contour
  6
CONTINUOUS
 10
48.000000
 20
126.000000
 11
40.000000
 21
126.000000
 39
2
 62
0
  0
LINE
  8
contour
  6
CONTINUOUS
 10
40.000000
 20
150.000000
 11
48.000000
 21
150.000000
 39
2
 62
0
  0
LINE
  8
contour
  6
CONTINUOUS
 10
30.500000
 20
24.000000
 11
39.500000
 21
24.000000
 39
2
 62
0
  0
LINE
  8
contour
  6
CONTINUOUS
 10
30.500000
 20
150.000000
 11
39.500000
 21
150.000000
 39
2
 62
0
  0
LINE
  8
contour
  6
DASH
 10
32.000000
 20
24.000000
 11
32.500000
 21
24.500000
 39
2
 62
0
  0
LINE
  8
contour
  6
DASH
 10
37.500000
 20
24.500000
 11
38.000000
 21
24.000000
 39
2
 62
0
  0
LINE
  8
contour
  6
DASH
 10
266.000000
 20
115.000000
 11
256.000000
 21
115.000000
 39
2
 62
0
  0
LINE
  8
contour
  6
CONTINUOUS
 10
262.000000
 20
121.000000
 11
257.250000
 21
121.000000
 39
2
 62
0
  0
LINE
  8
contour
  6
DASH
 10
264.750000
 20
121.000000
 11
262.000000
 21
121.000000
 39
2
 62
0
  0
LINE
  8
contour
  6
DASH
 10
266.000000
 20
121.000000
 11
266.000000
 21
115.000000
 39
2
 62
0
  0
LINE
  8
contour
  6
DASH
 10
256.000000
 20
121.000000
 11
256.000000
 21
115.000000
 39
2
 62
0
  0
LINE
  8
contour
  6
DASH
 10
258.000000
 20
115.000000
 11
258.000000
 21
93.000000
 39
2
 62
0
  0
LINE
  8
contour
  6
DASH
 10
264.000000
 20
115.000000
 11
264.000000
 21
93.000000
 39
2
 62
0
  0
LINE
  8
auxiliary
  6
DASHDOT
 10
261.000000
 20
124.000000
 11
261.000000
 21
90.000000
 39
1
 62
12
  0
LINE
  8
contour
  6
DASH
 10
175.000000
 20
99.000000
 11
174.999992
 21
103.000000
 39
1
 62
0
  0
LINE
  8
contour
  6
DASH
 10
181.000000
 20
99.000000
 11
181.000000
 21
103.000000
 39
1
 62
0
  0
LINE
  8
contour
  6
DASH
 10
213.000000
 20
99.000000
 11
213.000000
 21
103.000000
 39
1
 62
0
  0
LINE
  8
contour
  6
DASH
 10
219.000000
 20
99.000000
 11
219.000000
 21
103.000000
 39
1
 62
0
  0
DIMENSION
  8
dimension
  6
CONTINUOUS
  1
 
 10
63.000000
 20
58.000000
 13
63.000000
 23
69.000000
 14
88.000000
 24
69.000000
 50
0.000000
 70
0
 39
1
 62
0
  0
DIMENSION
  8
dimension
  6
CONTINUOUS
  1
 
 10
258.000000
 20
82.000000
 13
258.000000
 23
93.000000
 14
264.000000
 24
93.000000
 50
0.000000
 70
0
 39
1
 62
0
  0
LINE
  8
contour
  6
DASH
 10
30.000000
 20
150.000000
 11
30.000000
 21
126.000000
 39
2
 62
0
  0
LINE
  8
contour
  6
DASH
 10
40.000000
 20
150.000000
 11
40.000000
 21
126.000000
 39
2
 62
0
  0
ARC
  8
contour
  6
CONTINUOUS
 10
35.000000
 20
114.000004
 40
12.999996
 50
67.380127
 51
112.619873
 39
2
 62
0
  0
ARC
  8
contour
  6
CONTINUOUS
 10
35.000000
 20
161.999996
 40
12.999996
 50
247.380127
 51
292.619873
 39
2
 62
0
  0
ARC
  8
contour
  6
CONTINUOUS
 10
30.500000
 20
27.000000
 40
3.000000
 50
90.000000
 51
270.000000
 39
2
 62
0
  0
ARC
  8
contour
  6
CONTINUOUS
 10
39.500000
 20
27.000000
 40
3.000000
 50
270.000000
 51
90.000000
 39
2
 62
0
  0
LINE
  8
contour
  6
CONTINUOUS
 10
30.500000
 20
30.000000
 11
39.500000
 21
30.000000
 39
2
 62
0
  0
LINE
  8
contour
  6
CONTINUOUS
 10
30.500000
 20
150.000000
 11
30.500000
 21
30.000000
 39
2
 62
0
  0
LINE
  8
contour
  6
CONTINUOUS
 10
39.500000
 20
150.000000
 11
39.500000
 21
30.000000
 39
2
 62
0
  0
ARC
  8
contour
  6
CONTINUOUS
 10
30.500000
 20
153.000000
 40
3.000000
 50
90.000000
 51
270.000000
 39
2
 62
0
  0
ARC
  8
contour
  6
CONTINUOUS
 10
39.500000
 20
153.000000
 40
3.000000
 50
270.000000
 51
90.000000
 39
2
 62
0
  0
LINE
  8
contour
  6
CONTINUOUS
 10
30.500000
 20
156.000000
 11
39.500000
 21
156.000000
 39
2
 62
0
  0
LINE
  8
contour
  6
DASH
 10
38.000000
 20
30.000000
 11
38.000000
 21
24.000000
 39
2
 62
0
  0
LINE
  8
contour
  6
DASH
 10
32.000000
 20
30.000000
 11
32.000000
 21
24.000000
 39
2
 62
0
  0
LINE
  8
contour
  6
DASH
 10
32.500000
 20
24.500000
 11
37.500000
 21
24.500000
 39
2
 62
0
  0
LINE
  8
contour
  6
DASH
 10
32.500000
 20
30.000000
 11
32.500000
 21
24.500000
 39
2
 62
0
  0
LINE
  8
contour
  6
DASH
 10
37.500000
 20
30.000000
 11
37.500000
 21
24.500000
 39
2
 62
0
  0
LINE
  8
auxiliary
  6
DASHDOT
 10
16.000000
 20
138.000000
 11
280.000000
 21
138.000000
 39
1
 62
12
  0
LINE
  8
auxiliary
  6
DASHDOT
 10
35.000000
 20
159.000000
 11
35.000000
 21
21.000000
 39
1
 62
12
  0
DIMENSION
  8
default
  6
CONTINUOUS
  1
 
 10
88.000000
 20
70.576687
 13
88.000000
 23
69.000000
 14
261.000000
 24
77.000000
 50
0.000000
 70
0
 39
0
 62
0
  0
TEXT
  8
default
  6
CONTINUOUS
 10
152.000000
 20
13.000000
 40
5.000000
 50
0.000000
 72
0
  7
cursive#0.500000#3.000000
  1
Example 2
 39
2
 62
0
  0
ENDSEC
  0
EOF
