  0
SECTION
  2
HEADER
  9
$LIMMIN
 10
-90.000000
 20
-140.000000
  9
$LIMMAX
 10
187.000031
 20
50.000000
  9
$EXTMIN
 10
-90.000000
 20
-140.000000
  9
$EXTMAX
 10
187.000031
 20
50.000000
  9
$ANGBASE
 50
0.000000
  9
$ANGDIR
 70
0
  9
$INSUNITS
 70
4
  9
$DIMALT
 70
4
  9
$DIMLUNIT
 70
2
  9
$DIMASZ
 40
2.000000
  9
$DIMTXT
 40
3.000000
  9
$DIMRND
 40
0.010000
  9
$DIMEXE
 40
1.000000
  9
$DIMEXO
 40
1.000000
  9
$DIMAUNIT
 70
0
  9
$DIMADEC
 70
2
  9
$GRIDUNIT
 10
0.001000
 20
0.001000
  9
$PLIMMIN
 10
-100.000000
 20
-150.000000
  9
$PLIMMAX
 10
197.000000
 20
60.000000
  9
$PSVPSCALE
 40
1.000000
  0
ENDSEC
  0
SECTION
  2
TABLES
  0
TABLE
  2
LTYPE
 70
     1
  0
LTYPE
  2
CONTINUOUS
 70
    64
  3
Ausgez
 72
    65
 73
  0
 40
0.000000
  0
ENDTAB
  0
TABLE
  2
LAYER
 70
     1
  0
LAYER
  2
default
 70
    64
 62
0
  6
CONTINUOUS
  0
LAYER
  2
dimension
 70
    64
 62
0
  6
CONTINUOUS
  0
LAYER
  2
auxiliary
 70
    64
 62
0
  6
CONTINUOUS
  0
LAYER
  2
contour
 70
    64
 62
0
  6
CONTINUOUS
  0
LAYER
  2
border
 70
    64
 62
0
  6
CONTINUOUS
  0
ENDTAB
  0
ENDSEC
  0
SECTION
  2
BLOCKS
  0
ENDSEC
  0
SECTION
  2
ENTITIES
  0
LINE
  8
border
  6
CONTINUOUS
 10
141.000031
 20
-139.999939
 11
141.000031
 21
-126.999947
 39
2
 62
0
  0
LINE
  8
border
  6
CONTINUOUS
 10
7.000031
 20
-126.999977
 11
187.000031
 21
-126.999939
 39
2
 62
0
  0
LINE
  8
border
  6
CONTINUOUS
 10
47.000031
 20
-139.999939
 11
47.000031
 21
-114.999969
 39
2
 62
0
  0
TEXT
  8
border
  6
CONTINUOUS
 10
183.000000
 20
-137.000000
 40
5.000000
 50
0.000000
 72
2
  7
Cursive#0.500000#3.000000
  1
8 1601 09127
 39
2
 62
0
  0
LINE
  8
border
  6
CONTINUOUS
 10
172.000031
 20
-110.999939
 11
187.000031
 21
-110.999939
 39
2
 62
0
  0
LINE
  8
border
  6
CONTINUOUS
 10
7.000031
 20
-114.999977
 11
172.000031
 21
-114.999939
 39
2
 62
0
  0
LINE
  8
border
  6
CONTINUOUS
 10
174.000000
 20
-114.000000
 11
174.000000
 21
-116.000000
 39
2
 62
0
  0
LINE
  8
border
  6
CONTINUOUS
 10
178.000000
 20
-113.000000
 11
178.000000
 21
-117.000000
 39
2
 62
0
  0
LINE
  8
border
  6
CONTINUOUS
 10
178.000000
 20
-117.000000
 11
174.000000
 21
-116.000000
 39
2
 62
0
  0
LINE
  8
border
  6
CONTINUOUS
 10
174.000000
 20
-114.000000
 11
178.000000
 21
-113.000000
 39
2
 62
0
  0
CIRCLE
  8
border
  6
CONTINUOUS
 10
183.000000
 20
-115.000000
 40
2.000000
 39
2
 62
0
  0
CIRCLE
  8
border
  6
CONTINUOUS
 10
183.000000
 20
-115.000000
 40
1.000000
 39
2
 62
0
  0
TEXT
  8
border
  6
CONTINUOUS
 10
179.500000
 20
-109.000000
 40
5.000000
 50
0.000000
 72
1
  7
Normal#1.000000#3.000000
  1
1:1
 39
2
 62
0
  0
LINE
  8
border
  6
CONTINUOUS
 10
7.000031
 20
-98.999985
 11
187.000031
 21
-98.999939
 39
2
 62
0
  0
LINE
  8
border
  6
CONTINUOUS
 10
157.000031
 20
-126.999939
 11
157.000031
 21
-118.999947
 39
2
 62
0
  0
LINE
  8
border
  6
CONTINUOUS
 10
65.000031
 20
-126.999962
 11
65.000031
 21
-122.999962
 39
0
 62
0
  0
LINE
  8
border
  6
CONTINUOUS
 10
97.000031
 20
-118.999954
 11
187.000031
 21
-118.999939
 39
2
 62
0
  0
LINE
  8
border
  6
CONTINUOUS
 10
47.000031
 20
-122.999969
 11
97.000031
 21
-122.999954
 39
2
 62
0
  0
LINE
  8
border
  6
CONTINUOUS
 10
7.000031
 20
-122.999977
 11
47.000031
 21
-122.999969
 39
1
 62
0
  0
LINE
  8
border
  6
CONTINUOUS
 10
7.000031
 20
-118.999977
 11
47.000031
 21
-118.999969
 39
1
 62
0
  0
TEXT
  8
border
  6
CONTINUOUS
 10
158.999969
 20
-122.000046
 40
1.500000
 50
0.000000
 72
0
  7
Normal#0.300000#0.900000
  1
Pages
 39
1
 62
0
  0
TEXT
  8
border
  6
CONTINUOUS
 10
173.999969
 20
-122.000046
 40
1.500000
 50
0.000000
 72
0
  7
Normal#0.300000#0.900000
  1
Page
 39
1
 62
0
  0
TEXT
  8
border
  6
CONTINUOUS
 10
49.000000
 20
-130.000000
 40
1.500000
 50
0.000000
 72
0
  7
Normal#0.300000#0.900000
  1
Name
 39
1
 62
0
  0
LINE
  8
border
  6
DASHDOT
 10
173.000000
 20
-115.000000
 11
186.000000
 21
-115.000000
 39
1
 62
0
  0
LINE
  8
border
  6
DASHDOT
 10
183.000000
 20
-112.000000
 11
183.000000
 21
-118.000000
 39
1
 62
0
  0
TEXT
  8
border
  6
CONTINUOUS
 10
173.999969
 20
-102.000046
 40
1.500000
 50
0.000000
 72
0
  7
Normal#0.300000#0.900000
  1
Scale
 39
1
 62
0
  0
LINE
  8
border
  6
CONTINUOUS
 10
115.000031
 20
-98.999954
 11
115.000031
 21
-126.999954
 39
1
 62
0
  0
LINE
  8
border
  6
CONTINUOUS
 10
97.000031
 20
-122.999954
 11
157.000031
 21
-122.999947
 39
1
 62
0
  0
TEXT
  8
border
  6
CONTINUOUS
 10
99.000000
 20
-126.000000
 40
2.000000
 50
0.000000
 72
0
  7
Normal#0.400000#1.200000
  1
Replaces
 39
1
 62
0
  0
TEXT
  8
border
  6
CONTINUOUS
 10
99.000000
 20
-122.000000
 40
2.000000
 50
0.000000
 72
0
  7
Normal#0.400000#1.200000
  1
Source
 39
1
 62
0
  0
TEXT
  8
border
  6
CONTINUOUS
 10
99.000000
 20
-114.000000
 40
2.000000
 50
0.000000
 72
0
  7
Normal#0.400000#1.200000
  1
Released
 39
1
 62
0
  0
TEXT
  8
border
  6
CONTINUOUS
 10
99.000000
 20
-110.000000
 40
2.000000
 50
0.000000
 72
0
  7
Normal#0.400000#1.200000
  1
Norm proven
 39
1
 62
0
  0
TEXT
  8
border
  6
CONTINUOUS
 10
99.000000
 20
-106.000000
 40
2.000000
 50
0.000000
 72
0
  7
Normal#0.400000#1.200000
  1
Proven
 39
1
 62
0
  0
TEXT
  8
border
  6
CONTINUOUS
 10
99.000000
 20
-118.000000
 40
2.000000
 50
0.000000
 72
0
  7
Normal#0.400000#1.200000
  1
Order number
 39
1
 62
0
  0
TEXT
  8
border
  6
CONTINUOUS
 10
99.000000
 20
-102.000000
 40
2.000000
 50
0.000000
 72
0
  7
Normal#0.400000#1.200000
  1
Drawn
 39
1
 62
0
  0
TEXT
  8
border
  6
CONTINUOUS
 10
117.000000
 20
-102.000000
 40
2.000000
 50
0.000000
 72
0
  7
Normal#0.400000#1.200000
  1
1999-09-29
 39
1
 62
0
  0
TEXT
  8
border
  6
CONTINUOUS
 10
117.000000
 20
-106.000000
 40
2.000000
 50
0.000000
 72
0
  7
Normal#0.400000#1.200000
  1
1999-09-29
 39
1
 62
0
  0
TEXT
  8
border
  6
CONTINUOUS
 10
117.000000
 20
-110.000000
 40
2.000000
 50
0.000000
 72
0
  7
Normal#0.400000#1.200000
  1
1999-09-29
 39
1
 62
0
  0
TEXT
  8
border
  6
CONTINUOUS
 10
117.000000
 20
-114.000000
 40
2.000000
 50
0.000000
 72
0
  7
Normal#0.400000#1.200000
  1
1999-09-29
 39
1
 62
0
  0
LINE
  8
border
  6
CONTINUOUS
 10
97.000031
 20
-98.999962
 11
97.000031
 21
-126.999954
 39
2
 62
0
  0
LINE
  8
border
  6
CONTINUOUS
 10
7.000031
 20
-139.999939
 11
7.000031
 21
-84.999977
 39
2
 62
0
  0
LINE
  8
border
  6
CONTINUOUS
 10
172.000031
 20
-126.999939
 11
172.000031
 21
-84.999943
 39
2
 62
0
  0
TEXT
  8
border
  6
CONTINUOUS
 10
143.000000
 20
-130.000000
 40
1.500000
 50
0.000000
 72
0
  7
Normal#0.300000#0.900000
  1
ID
 39
1
 62
0
  0
LINE
  8
border
  6
CONTINUOUS
 10
52.000031
 20
-114.999969
 11
52.000031
 21
-98.999969
 39
2
 62
0
  0
LINE
  8
border
  6
CONTINUOUS
 10
21.000031
 20
-114.999977
 11
21.000031
 21
-98.999985
 39
1
 62
0
  0
LINE
  8
border
  6
CONTINUOUS
 10
25.000031
 20
-114.999969
 11
25.000031
 21
-98.999985
 39
1
 62
0
  0
LINE
  8
border
  6
CONTINUOUS
 10
21.000031
 20
-102.999977
 11
52.000031
 21
-102.999969
 39
1
 62
0
  0
LINE
  8
border
  6
CONTINUOUS
 10
21.000031
 20
-106.999977
 11
52.000031
 21
-106.999969
 39
1
 62
0
  0
LINE
  8
border
  6
CONTINUOUS
 10
21.000031
 20
-110.999977
 11
52.000031
 21
-110.999969
 39
1
 62
0
  0
LINE
  8
border
  6
CONTINUOUS
 10
66.000031
 20
-114.999969
 11
66.000031
 21
-98.999969
 39
1
 62
0
  0
LINE
  8
border
  6
CONTINUOUS
 10
70.000031
 20
-114.999969
 11
70.000031
 21
-98.999969
 39
1
 62
0
  0
LINE
  8
border
  6
CONTINUOUS
 10
66.000031
 20
-102.999969
 11
172.000031
 21
-102.999939
 39
1
 62
0
  0
LINE
  8
border
  6
CONTINUOUS
 10
66.000031
 20
-106.999969
 11
172.000031
 21
-106.999939
 39
1
 62
0
  0
LINE
  8
border
  6
CONTINUOUS
 10
66.000031
 20
-110.999969
 11
172.000031
 21
-110.999939
 39
1
 62
0
  0
TEXT
  8
border
  6
CONTINUOUS
 10
9.000000
 20
-107.000000
 40
2.000000
 50
0.000000
 72
0
  7
Normal#0.400000#1.200000
  1
Changed
 39
1
 62
0
  0
TEXT
  8
border
  6
CONTINUOUS
 10
54.000000
 20
-107.000000
 40
2.000000
 50
0.000000
 72
0
  7
Normal#0.400000#1.200000
  1
Changed
 39
1
 62
0
  0
LINE
  8
border
  6
CONTINUOUS
 10
142.000031
 20
-98.999954
 11
142.000015
 21
-114.999947
 39
1
 62
0
  0
TEXT
  8
border
  6
CONTINUOUS
 10
27.000000
 20
-137.000000
 40
5.000000
 50
0.000000
 72
1
  7
Cursive#0.500000#3.000000
  1
APS
 39
2
 62
0
  0
TEXT
  8
border
  6
CONTINUOUS
 10
9.000000
 20
-130.000000
 40
1.500000
 50
0.000000
 72
0
  7
Normal#0.300000#0.900000
  1
Firm
 39
1
 62
0
  0
LINE
  8
border
  6
CONTINUOUS
 10
7.000031
 20
-92.999985
 11
187.000031
 21
-92.999939
 39
2
 62
0
  0
TEXT
  8
border
  6
CONTINUOUS
 10
9.000000
 20
-97.000000
 40
2.000000
 50
0.000000
 72
0
  7
Normal#0.400000#1.200000
  1
Pos.
 39
1
 62
0
  0
TEXT
  8
border
  6
CONTINUOUS
 10
19.000000
 20
-97.000000
 40
2.000000
 50
0.000000
 72
0
  7
Normal#0.400000#1.200000
  1
Num.
 39
1
 62
0
  0
TEXT
  8
border
  6
CONTINUOUS
 10
29.000000
 20
-97.000000
 40
2.000000
 50
0.000000
 72
0
  7
Normal#0.400000#1.200000
  1
Unit
 39
1
 62
0
  0
TEXT
  8
border
  6
CONTINUOUS
 10
39.000000
 20
-97.000000
 40
2.000000
 50
0.000000
 72
0
  7
Normal#0.400000#1.200000
  1
Article Code
 39
1
 62
0
  0
TEXT
  8
border
  6
CONTINUOUS
 10
49.000000
 20
-126.000000
 40
2.000000
 50
0.000000
 72
0
  7
Normal#0.400000#1.200000
  1
Article Code
 39
1
 62
0
  0
TEXT
  8
border
  6
CONTINUOUS
 10
79.000000
 20
-97.000000
 40
2.000000
 50
0.000000
 72
0
  7
Normal#0.400000#1.200000
  1
Description
 39
1
 62
0
  0
LINE
  8
border
  6
CONTINUOUS
 10
7.000031
 20
-86.999985
 11
187.000031
 21
-86.999939
 39
1
 62
0
  0
LINE
  8
border
  6
CONTINUOUS
 10
17.000031
 20
-98.999985
 11
17.000031
 21
-84.999977
 39
2
 62
0
  0
LINE
  8
border
  6
CONTINUOUS
 10
27.000031
 20
-98.999985
 11
27.000031
 21
-84.999977
 39
2
 62
0
  0
LINE
  8
border
  6
CONTINUOUS
 10
37.000031
 20
-98.999985
 11
37.000031
 21
-84.999977
 39
2
 62
0
  0
LINE
  8
border
  6
CONTINUOUS
 10
77.000031
 20
-98.999985
 11
77.000031
 21
-84.999977
 39
2
 62
0
  0
LINE
  8
border
  6
CONTINUOUS
 10
-90.000000
 20
-140.000000
 11
187.000031
 21
-139.999939
 39
2
 62
0
  0
LINE
  8
border
  6
CONTINUOUS
 10
187.000031
 20
-139.999939
 11
187.000000
 21
50.000000
 39
2
 62
0
  0
LINE
  8
border
  6
CONTINUOUS
 10
-90.000000
 20
50.000000
 11
-90.000000
 21
-140.000000
 39
2
 62
0
  0
CIRCLE
  8
contour
  6
CONTINUOUS
 10
-10.000000
 20
-35.000000
 40
10.000000
 39
2
 62
0
  0
CIRCLE
  8
contour
  6
CONTINUOUS
 10
-10.000000
 20
35.000000
 40
5.000000
 39
2
 62
0
  0
CIRCLE
  8
contour
  6
CONTINUOUS
 10
-10.000000
 20
-35.000000
 40
5.000000
 39
2
 62
0
  0
ARC
  8
contour
  6
CONTINUOUS
 10
-10.000000
 20
35.000000
 40
10.000000
 50
8.213225
 51
171.786774
 39
2
 62
0
  0
ARC
  8
contour
  6
CONTINUOUS
 10
-13.822266
 20
23.624969
 40
2.000000
 50
71.426544
 51
175.904083
 39
2
 62
0
  0
ARC
  8
contour
  6
CONTINUOUS
 10
-6.177734
 20
23.624969
 40
2.000000
 50
4.095910
 51
108.573662
 39
2
 62
0
  0
ARC
  8
contour
  6
CONTINUOUS
 10
-10.000000
 20
35.000000
 40
10.000000
 50
251.426483
 51
288.573486
 39
2
 62
0
  0
ARC
  8
contour
  6
CONTINUOUS
 10
-16.515717
 20
-13.986984
 40
2.000000
 50
175.904068
 51
287.227539
 39
2
 62
0
  0
LINE
  8
contour
  6
CONTINUOUS
 10
-18.510605
 20
-13.844131
 11
-15.817162
 21
23.767822
 39
2
 62
0
  0
ARC
  8
contour
  6
CONTINUOUS
 10
-3.484283
 20
-13.986984
 40
2.000000
 50
252.772446
 51
4.095926
 39
2
 62
0
  0
ARC
  8
contour
  6
CONTINUOUS
 10
-10.000000
 20
-35.000000
 40
20.000000
 50
72.772377
 51
107.227623
 39
2
 62
0
  0
LINE
  8
contour
  6
CONTINUOUS
 10
-1.489395
 20
-13.844131
 11
-4.182838
 21
23.767822
 39
2
 62
0
  0
CIRCLE
  8
contour
  6
CONTINUOUS
 10
-70.621780
 20
-70.000000
 40
5.000000
 39
2
 62
0
  0
ARC
  8
contour
  6
CONTINUOUS
 10
-70.621780
 20
-70.000000
 40
10.000000
 50
128.213226
 51
291.786774
 39
2
 62
0
  0
ARC
  8
contour
  6
CONTINUOUS
 10
-58.859585
 20
-67.622658
 40
2.000000
 50
191.426544
 51
295.904083
 39
2
 62
0
  0
ARC
  8
contour
  6
CONTINUOUS
 10
-62.681839
 20
-61.002312
 40
2.000000
 50
124.095909
 51
228.573669
 39
2
 62
0
  0
ARC
  8
contour
  6
CONTINUOUS
 10
-70.621780
 20
-70.000000
 40
10.000000
 50
11.426483
 51
48.573486
 39
2
 62
0
  0
ARC
  8
contour
  6
CONTINUOUS
 10
-24.939941
 20
-51.149284
 40
2.000000
 50
295.904053
 51
47.227539
 39
2
 62
0
  0
LINE
  8
contour
  6
CONTINUOUS
 10
-24.066216
 20
-52.948334
 11
-57.985840
 21
-69.421730
 39
2
 62
0
  0
ARC
  8
contour
  6
CONTINUOUS
 10
-31.455666
 20
-39.863731
 40
2.000000
 50
12.772461
 51
124.095924
 39
2
 62
0
  0
ARC
  8
contour
  6
CONTINUOUS
 10
-10.000000
 20
-35.000000
 40
20.000000
 50
192.772369
 51
227.227631
 39
2
 62
0
  0
LINE
  8
contour
  6
CONTINUOUS
 10
-32.576820
 20
-38.207535
 11
-63.803013
 21
-59.346092
 39
2
 62
0
  0
CIRCLE
  8
contour
  6
CONTINUOUS
 10
50.621780
 20
-70.000000
 40
5.000000
 39
2
 62
0
  0
ARC
  8
contour
  6
CONTINUOUS
 10
50.621780
 20
-70.000000
 40
10.000000
 50
248.213226
 51
51.786774
 39
2
 62
0
  0
ARC
  8
contour
  6
CONTINUOUS
 10
42.681839
 20
-61.002312
 40
2.000000
 50
311.426544
 51
55.904083
 39
2
 62
0
  0
ARC
  8
contour
  6
CONTINUOUS
 10
38.859589
 20
-67.622658
 40
2.000000
 50
244.095917
 51
348.573669
 39
2
 62
0
  0
ARC
  8
contour
  6
CONTINUOUS
 10
50.621780
 20
-70.000000
 40
10.000000
 50
131.426483
 51
168.573486
 39
2
 62
0
  0
ARC
  8
contour
  6
CONTINUOUS
 10
11.455666
 20
-39.863731
 40
2.000000
 50
55.904053
 51
167.227539
 39
2
 62
0
  0
LINE
  8
contour
  6
CONTINUOUS
 10
12.576820
 20
-38.207527
 11
43.803009
 21
-59.346092
 39
2
 62
0
  0
ARC
  8
contour
  6
CONTINUOUS
 10
4.939941
 20
-51.149284
 40
2.000000
 50
132.772461
 51
244.095932
 39
2
 62
0
  0
ARC
  8
contour
  6
CONTINUOUS
 10
-10.000000
 20
-35.000000
 40
20.000000
 50
312.772369
 51
347.227631
 39
2
 62
0
  0
LINE
  8
contour
  6
CONTINUOUS
 10
4.066216
 20
-52.948334
 11
37.985840
 21
-69.421730
 39
2
 62
0
  0
LINE
  8
contour
  6
CONTINUOUS
 10
8.081848
 20
-20.274719
 11
-0.102570
 21
36.428574
 39
2
 62
0
  0
LINE
  8
contour
  6
CONTINUOUS
 10
11.793388
 20
-26.703293
 11
56.807678
 21
-62.142838
 39
2
 62
0
  0
LINE
  8
contour
  6
CONTINUOUS
 10
-13.711540
 20
-58.021980
 11
-66.910240
 21
-79.285713
 39
2
 62
0
  0
LINE
  8
contour
  6
CONTINUOUS
 10
-6.288460
 20
-58.021980
 11
46.910233
 21
-79.285728
 39
2
 62
0
  0
LINE
  8
contour
  6
CONTINUOUS
 10
-31.793381
 20
-26.703293
 11
-76.807671
 21
-62.142860
 39
2
 62
0
  0
LINE
  8
contour
  6
CONTINUOUS
 10
-28.081848
 20
-20.274719
 11
-19.897430
 21
36.428574
 39
2
 62
0
  0
ARC
  8
contour
  6
CONTINUOUS
 10
17.979279
 20
-18.846146
 40
10.000000
 50
188.213226
 51
231.786835
 39
2
 62
0
  0
ARC
  8
contour
  6
CONTINUOUS
 10
-10.000000
 20
-67.307693
 40
10.000000
 50
68.213196
 51
111.786804
 39
2
 62
0
  0
ARC
  8
contour
  6
CONTINUOUS
 10
-37.979282
 20
-18.846146
 40
10.000000
 50
308.213226
 51
351.786774
 39
2
 62
0
  0
LINE
  8
contour
  6
CONTINUOUS
 10
120.000000
 20
45.000000
 11
140.000000
 21
45.000000
 39
2
 62
0
  0
LINE
  8
contour
  6
DASH
 10
130.000000
 20
-35.000000
 11
130.000000
 21
-25.000000
 39
2
 62
0
  0
LINE
  8
contour
  6
DASH
 10
130.000000
 20
-25.000000
 11
120.000000
 21
-25.000000
 39
2
 62
0
  0
LINE
  8
contour
  6
DASH
 10
130.000000
 20
-30.000000
 11
140.000000
 21
-30.000000
 39
2
 62
0
  0
LINE
  8
contour
  6
DASH
 10
120.000000
 20
25.000000
 11
125.000000
 21
25.000000
 39
2
 62
0
  0
LINE
  8
contour
  6
DASH
 10
125.000000
 20
25.000000
 11
125.000000
 21
-15.000000
 39
2
 62
0
  0
LINE
  8
contour
  6
DASH
 10
120.000000
 20
-15.000000
 11
125.000000
 21
-15.000000
 39
2
 62
0
  0
LINE
  8
contour
  6
DASH
 10
120.000000
 20
30.000000
 11
140.000000
 21
30.000000
 39
2
 62
0
  0
LINE
  8
contour
  6
DASH
 10
120.000000
 20
40.000000
 11
140.000000
 21
40.000000
 39
2
 62
0
  0
LINE
  8
contour
  6
CONTINUOUS
 10
120.000000
 20
45.000000
 11
120.000000
 21
-38.000000
 39
2
 62
0
  0
LINE
  8
contour
  6
CONTINUOUS
 10
140.000000
 20
-38.000000
 11
140.000000
 21
45.000000
 39
2
 62
0
  0
DIMENSION
  8
dimension
  6
CONTINUOUS
 10
-3.484283
 20
-13.986984
 15
2.772217
 25
-20.596786
 40
2.000000
 70
4
 39
1
 62
0
  0
DIMENSION
  8
dimension
  6
CONTINUOUS
 10
-10.000000
 20
-35.000000
 15
-15.635063
 25
-7.200363
 40
20.000000
 70
4
 39
1
 62
0
  0
DIMENSION
  8
dimension
  6
CONTINUOUS
 10
17.979279
 20
-18.846146
 15
13.482948
 25
-21.535004
 40
10.000000
 70
4
 39
1
 62
0
  0
DIMENSION
  8
dimension
  6
CONTINUOUS
 10
120.000000
 20
-50.000000
 13
120.000000
 23
-10.000000
 14
125.000000
 24
-15.000000
 50
0.000000
 70
0
 39
1
 62
0
  0
DIMENSION
  8
dimension
  6
CONTINUOUS
 10
120.000000
 20
-60.000000
 13
120.000000
 23
-30.000000
 14
130.000000
 24
-30.000000
 50
0.000000
 70
0
 39
1
 62
0
  0
DIMENSION
  8
dimension
  6
CONTINUOUS
 10
120.000000
 20
-70.000000
 13
120.000000
 23
-30.000000
 14
140.000000
 24
-30.000000
 50
0.000000
 70
0
 39
1
 62
0
  0
LINE
  8
auxiliary
  6
DASHDOT
 10
110.000000
 20
-35.000000
 11
150.000000
 21
-35.000000
 39
1
 62
12
  0
ARC
  8
auxiliary
  6
DASHDOT
 10
-10.000000
 20
-35.000000
 40
70.000000
 50
79.895523
 51
100.104477
 39
1
 62
12
  0
ARC
  8
auxiliary
  6
DASHDOT
 10
-10.000000
 20
-35.000000
 40
70.000000
 50
199.895523
 51
220.104477
 39
1
 62
12
  0
ARC
  8
auxiliary
  6
DASHDOT
 10
-10.000000
 20
-35.000000
 40
70.000000
 50
319.895508
 51
340.104492
 39
1
 62
12
  0
LINE
  8
auxiliary
  6
DASHDOT
 10
110.000000
 20
35.000000
 11
150.000000
 21
35.000000
 39
1
 62
12
  0
DIMENSION
  8
dimension
  6
CONTINUOUS
 10
-28.000000
 20
40.000000
 13
-10.000000
 23
40.000000
 14
-10.000000
 24
30.000000
 50
90.000000
 70
0
 39
1
 62
0
  0
DIMENSION
  8
dimension
  6
CONTINUOUS
 10
-80.956717
 20
-52.099364
 13
-70.621780
 23
-70.000000
 14
-10.000000
 24
-35.000000
 70
1
 39
1
 62
0
  0
LINE
  8
auxiliary
  6
DASHDOT
 10
-8.267952
 20
-34.000000
 11
-82.746132
 21
-77.000000
 39
1
 62
12
  0
LINE
  8
auxiliary
  6
DASHDOT
 10
-11.732048
 20
-34.000000
 11
62.746140
 21
-77.000000
 39
1
 62
12
  0
LINE
  8
auxiliary
  6
DASHDOT
 10
-10.000000
 20
-37.000000
 11
-10.000000
 21
49.000000
 39
1
 62
12
  0
DIMENSION
  8
dimension
  6
CONTINUOUS
 13
24.641007
 23
-54.999993
 14
33.301270
 24
-59.999992
 10
-10.000000
 20
5.000000
 15
-10.000000
 25
14.999961
 16
33.301270
 26
-59.999992
 70
2
 39
1
 62
0
  0
LINE
  8
border
  6
CONTINUOUS
 10
187.000000
 20
50.000000
 11
-90.000000
 21
50.000000
 39
2
 62
0
  0
DIMENSION
  8
default
  6
CONTINUOUS
 10
-10.000000
 20
35.000000
 15
10.985810
 25
40.452218
 40
10.000000
 70
4
 39
0
 62
0
  0
TEXT
  8
default
  6
CONTINUOUS
 10
52.000000
 20
-137.000000
 40
5.000000
 50
0.000000
 72
0
  7
Cursive#0.500000#3.000000
  1
Example 1
 39
2
 62
0
  0
ENDSEC
  0
EOF
