  0
SECTION
  2
HEADER
  9
$LIMMIN
 10
0.000000
 20
0.000000
  9
$LIMMAX
 10
287.000031
 20
200.000000
  9
$EXTMIN
 10
0.000000
 20
0.000000
  9
$EXTMAX
 10
287.000031
 20
200.000000
  9
$ANGBASE
 50
0.000000
  9
$ANGDIR
 70
0
  9
$INSUNITS
 70
4
  9
$DIMALT
 70
4
  9
$DIMLUNIT
 70
2
  9
$DIMASZ
 40
3.000000
  9
$DIMTXT
 40
5.000000
  9
$DIMRND
 40
0.010000
  9
$DIMEXE
 40
2.000000
  9
$DIMEXO
 40
2.000000
  9
$DIMAUNIT
 70
0
  9
$DIMADEC
 70
2
  9
$GRIDUNIT
 10
0.001000
 20
0.001000
  9
$PLIMMIN
 10
0.000000
 20
0.000000
  9
$PLIMMAX
 10
297.000000
 20
210.000000
  9
$PSVPSCALE
 40
1.000000
  0
ENDSEC
  0
SECTION
  2
TABLES
  0
TABLE
  2
LTYPE
 70
     1
  0
LTYPE
  2
CONTINUOUS
 70
    64
  3
Ausgez
 72
    65
 73
  0
 40
0.000000
  0
ENDTAB
  0
TABLE
  2
LAYER
 70
     1
  0
LAYER
  2
default
 70
    64
 39
0
 62
0
  6
CONTINUOUS
  0
LAYER
  2
border
 70
    64
 39
0
 62
0
  6
CONTINUOUS
  0
LAYER
  2
(null)
 70
    64
 39
0
 62
0
  6
CONTINUOUS
  0
ENDTAB
  0
ENDSEC
  0
SECTION
  2
BLOCKS
  0
ENDSEC
  0
SECTION
  2
ENTITIES
  0
LINE
  8
border
  6
CONTINUOUS
 10
241.000031
 20
10.000061
 11
241.000031
 21
23.000051
 39
2
 62
0
  0
LINE
  8
border
  6
CONTINUOUS
 10
107.000031
 20
23.000025
 11
287.000031
 21
23.000061
 39
2
 62
0
  0
LINE
  8
border
  6
CONTINUOUS
 10
147.000031
 20
10.000061
 11
147.000031
 21
35.000032
 39
2
 62
0
  0
LINE
  8
border
  6
CONTINUOUS
 10
272.000031
 20
39.000057
 11
287.000031
 21
39.000061
 39
2
 62
0
  0
LINE
  8
border
  6
CONTINUOUS
 10
107.000031
 20
35.000025
 11
272.000031
 21
35.000057
 39
2
 62
0
  0
LINE
  8
border
  6
CONTINUOUS
 10
274.000000
 20
36.000000
 11
274.000000
 21
34.000000
 39
2
 62
0
  0
LINE
  8
border
  6
CONTINUOUS
 10
278.000000
 20
37.000000
 11
278.000000
 21
33.000000
 39
2
 62
0
  0
LINE
  8
border
  6
CONTINUOUS
 10
278.000000
 20
33.000000
 11
274.000000
 21
34.000000
 39
2
 62
0
  0
LINE
  8
border
  6
CONTINUOUS
 10
274.000000
 20
36.000000
 11
278.000000
 21
37.000000
 39
2
 62
0
  0
CIRCLE
  8
border
  6
CONTINUOUS
 10
283.000000
 20
35.000000
 40
2.000000
 39
2
 62
0
  0
CIRCLE
  8
border
  6
CONTINUOUS
 10
283.000000
 20
35.000000
 40
1.000000
 39
2
 62
0
  0
LINE
  8
border
  6
CONTINUOUS
 10
107.000031
 20
51.000015
 11
287.000031
 21
51.000061
 39
2
 62
0
  0
LINE
  8
border
  6
CONTINUOUS
 10
257.000031
 20
23.000058
 11
257.000031
 21
31.000053
 39
2
 62
0
  0
LINE
  8
border
  6
CONTINUOUS
 10
165.000031
 20
23.000036
 11
165.000031
 21
27.000036
 39
0
 62
0
  0
LINE
  8
border
  6
CONTINUOUS
 10
197.000031
 20
31.000042
 11
287.000031
 21
31.000059
 39
2
 62
0
  0
LINE
  8
border
  6
CONTINUOUS
 10
147.000031
 20
27.000032
 11
197.000031
 21
27.000042
 39
2
 62
0
  0
LINE
  8
border
  6
CONTINUOUS
 10
107.000031
 20
27.000025
 11
147.000031
 21
27.000032
 39
1
 62
0
  0
LINE
  8
border
  6
CONTINUOUS
 10
107.000031
 20
31.000025
 11
147.000031
 21
31.000032
 39
1
 62
0
  0
LINE
  8
border
  6
DASHDOT
 10
273.000000
 20
35.000000
 11
286.000000
 21
35.000000
 39
1
 62
0
  0
LINE
  8
border
  6
DASHDOT
 10
283.000000
 20
38.000000
 11
283.000000
 21
32.000000
 39
1
 62
0
  0
LINE
  8
border
  6
CONTINUOUS
 10
215.000031
 20
51.000042
 11
215.000031
 21
23.000043
 39
1
 62
0
  0
LINE
  8
border
  6
CONTINUOUS
 10
197.000031
 20
27.000042
 11
257.000031
 21
27.000053
 39
1
 62
0
  0
LINE
  8
border
  6
CONTINUOUS
 10
197.000031
 20
51.000038
 11
197.000031
 21
23.000043
 39
2
 62
0
  0
LINE
  8
border
  6
CONTINUOUS
 10
107.000031
 20
10.000061
 11
107.000031
 21
65.000023
 39
2
 62
0
  0
LINE
  8
border
  6
CONTINUOUS
 10
272.000031
 20
23.000058
 11
272.000031
 21
65.000057
 39
2
 62
0
  0
LINE
  8
border
  6
CONTINUOUS
 10
152.000031
 20
35.000034
 11
152.000031
 21
51.000027
 39
2
 62
0
  0
LINE
  8
border
  6
CONTINUOUS
 10
121.000031
 20
35.000025
 11
121.000031
 21
51.000015
 39
1
 62
0
  0
LINE
  8
border
  6
CONTINUOUS
 10
125.000031
 20
35.000027
 11
125.000031
 21
51.000019
 39
1
 62
0
  0
LINE
  8
border
  6
CONTINUOUS
 10
121.000031
 20
47.000023
 11
152.000031
 21
47.000031
 39
1
 62
0
  0
LINE
  8
border
  6
CONTINUOUS
 10
121.000031
 20
43.000023
 11
152.000031
 21
43.000031
 39
1
 62
0
  0
LINE
  8
border
  6
CONTINUOUS
 10
121.000031
 20
39.000025
 11
152.000031
 21
39.000032
 39
1
 62
0
  0
LINE
  8
border
  6
CONTINUOUS
 10
166.000031
 20
35.000034
 11
166.000031
 21
51.000027
 39
1
 62
0
  0
LINE
  8
border
  6
CONTINUOUS
 10
170.000031
 20
35.000034
 11
170.000031
 21
51.000027
 39
1
 62
0
  0
LINE
  8
border
  6
CONTINUOUS
 10
166.000031
 20
47.000031
 11
272.000031
 21
47.000057
 39
1
 62
0
  0
LINE
  8
border
  6
CONTINUOUS
 10
166.000031
 20
43.000031
 11
272.000031
 21
43.000057
 39
1
 62
0
  0
LINE
  8
border
  6
CONTINUOUS
 10
166.000031
 20
39.000032
 11
272.000031
 21
39.000057
 39
1
 62
0
  0
LINE
  8
border
  6
CONTINUOUS
 10
242.000031
 20
51.000042
 11
242.000015
 21
35.000051
 39
1
 62
0
  0
LINE
  8
border
  6
CONTINUOUS
 10
107.000031
 20
57.000015
 11
287.000031
 21
57.000061
 39
2
 62
0
  0
LINE
  8
border
  6
CONTINUOUS
 10
107.000031
 20
63.000015
 11
287.000031
 21
63.000061
 39
1
 62
0
  0
LINE
  8
border
  6
CONTINUOUS
 10
117.000031
 20
51.000019
 11
117.000031
 21
65.000023
 39
2
 62
0
  0
LINE
  8
border
  6
CONTINUOUS
 10
127.000031
 20
51.000019
 11
127.000031
 21
65.000023
 39
2
 62
0
  0
LINE
  8
border
  6
CONTINUOUS
 10
137.000031
 20
51.000019
 11
137.000031
 21
65.000023
 39
2
 62
0
  0
LINE
  8
border
  6
CONTINUOUS
 10
177.000031
 20
51.000019
 11
177.000031
 21
65.000023
 39
2
 62
0
  0
LINE
  8
border
  6
CONTINUOUS
 10
10.000000
 20
10.000000
 11
287.000031
 21
10.000061
 39
2
 62
0
  0
TEXT
  8
border
  6
CONTINUOUS
 10
279.500000
 20
41.000000
 40
5.000000
 50
0.000000
 72
1
  7
normal#1.000000#3.000000
  1
1:1
 39
2
 62
0
  0
TEXT
  8
border
  6
CONTINUOUS
 10
258.999969
 20
27.999950
 40
1.500000
 50
0.000000
 72
0
  7
normal#0.300000#0.900000
  1
Pages
 39
1
 62
0
  0
TEXT
  8
border
  6
CONTINUOUS
 10
273.999969
 20
27.999950
 40
1.500000
 50
0.000000
 72
0
  7
normal#0.300000#0.900000
  1
Page
 39
1
 62
0
  0
TEXT
  8
border
  6
CONTINUOUS
 10
149.000000
 20
20.000000
 40
1.500000
 50
0.000000
 72
0
  7
normal#0.300000#0.900000
  1
Name
 39
1
 62
0
  0
TEXT
  8
border
  6
CONTINUOUS
 10
273.999969
 20
47.999950
 40
1.500000
 50
0.000000
 72
0
  7
normal#0.300000#0.900000
  1
Scale
 39
1
 62
0
  0
TEXT
  8
border
  6
CONTINUOUS
 10
199.000000
 20
24.000000
 40
2.000000
 50
0.000000
 72
0
  7
normal#0.400000#1.200000
  1
Replaces
 39
1
 62
0
  0
TEXT
  8
border
  6
CONTINUOUS
 10
199.000000
 20
28.000000
 40
2.000000
 50
0.000000
 72
0
  7
normal#0.400000#1.200000
  1
Source
 39
1
 62
0
  0
TEXT
  8
border
  6
CONTINUOUS
 10
199.000000
 20
36.000000
 40
2.000000
 50
0.000000
 72
0
  7
normal#0.400000#1.200000
  1
Released
 39
1
 62
0
  0
TEXT
  8
border
  6
CONTINUOUS
 10
199.000000
 20
40.000000
 40
2.000000
 50
0.000000
 72
0
  7
normal#0.400000#1.200000
  1
Norm proven
 39
1
 62
0
  0
TEXT
  8
border
  6
CONTINUOUS
 10
199.000000
 20
44.000000
 40
2.000000
 50
0.000000
 72
0
  7
normal#0.400000#1.200000
  1
Proven
 39
1
 62
0
  0
TEXT
  8
border
  6
CONTINUOUS
 10
199.000000
 20
32.000000
 40
2.000000
 50
0.000000
 72
0
  7
normal#0.400000#1.200000
  1
Order number
 39
1
 62
0
  0
TEXT
  8
border
  6
CONTINUOUS
 10
199.000000
 20
48.000000
 40
2.000000
 50
0.000000
 72
0
  7
normal#0.400000#1.200000
  1
Drawn
 39
1
 62
0
  0
TEXT
  8
border
  6
CONTINUOUS
 10
243.000000
 20
20.000000
 40
1.500000
 50
0.000000
 72
0
  7
normal#0.300000#0.900000
  1
ID
 39
1
 62
0
  0
TEXT
  8
border
  6
CONTINUOUS
 10
109.000000
 20
43.000000
 40
2.000000
 50
0.000000
 72
0
  7
normal#0.400000#1.200000
  1
Changed
 39
1
 62
0
  0
TEXT
  8
border
  6
CONTINUOUS
 10
154.000000
 20
43.000000
 40
2.000000
 50
0.000000
 72
0
  7
normal#0.400000#1.200000
  1
Changed
 39
1
 62
0
  0
TEXT
  8
border
  6
CONTINUOUS
 10
127.000000
 20
13.000000
 40
5.000000
 50
0.000000
 72
1
  7
cursive#0.500000#3.000000
  1
APS
 39
2
 62
0
  0
TEXT
  8
border
  6
CONTINUOUS
 10
109.000000
 20
20.000000
 40
1.500000
 50
0.000000
 72
0
  7
normal#0.300000#0.900000
  1
Firm
 39
1
 62
0
  0
TEXT
  8
border
  6
CONTINUOUS
 10
109.000000
 20
53.000000
 40
2.000000
 50
0.000000
 72
0
  7
normal#0.400000#1.200000
  1
Pos.
 39
1
 62
0
  0
TEXT
  8
border
  6
CONTINUOUS
 10
119.000000
 20
53.000000
 40
2.000000
 50
0.000000
 72
0
  7
normal#0.400000#1.200000
  1
Num.
 39
1
 62
0
  0
TEXT
  8
border
  6
CONTINUOUS
 10
129.000000
 20
53.000000
 40
2.000000
 50
0.000000
 72
0
  7
normal#0.400000#1.200000
  1
Unit
 39
1
 62
0
  0
TEXT
  8
border
  6
CONTINUOUS
 10
139.000000
 20
53.000000
 40
2.000000
 50
0.000000
 72
0
  7
normal#0.400000#1.200000
  1
Article Code
 39
1
 62
0
  0
TEXT
  8
border
  6
CONTINUOUS
 10
149.000000
 20
24.000000
 40
2.000000
 50
0.000000
 72
0
  7
normal#0.400000#1.200000
  1
Article Code
 39
1
 62
0
  0
TEXT
  8
border
  6
CONTINUOUS
 10
179.000000
 20
53.000000
 40
2.000000
 50
0.000000
 72
0
  7
normal#0.400000#1.200000
  1
Description
 39
1
 62
0
  0
TEXT
  8
default
  6
CONTINUOUS
 10
283.000000
 20
13.000000
 40
5.000000
 50
0.000000
 72
2
  7
cursive#0.500000#3.000000
  1
8 1601 09346
 39
2
 62
0
  0
TEXT
  8
default
  6
CONTINUOUS
 10
217.000000
 20
36.000000
 40
2.000000
 50
0.000000
 72
0
  7
normal#0.400000#1.200000
  1
1999-10-20
 39
1
 62
0
  0
TEXT
  8
default
  6
CONTINUOUS
 10
217.000000
 20
40.000000
 40
2.000000
 50
0.000000
 72
0
  7
normal#0.400000#1.200000
  1
1999-10-20
 39
1
 62
0
  0
TEXT
  8
default
  6
CONTINUOUS
 10
217.000000
 20
44.000000
 40
2.000000
 50
0.000000
 72
0
  7
normal#0.400000#1.200000
  1
1999-01-20
 39
1
 62
0
  0
TEXT
  8
default
  6
CONTINUOUS
 10
217.000000
 20
48.000000
 40
2.000000
 50
0.000000
 72
0
  7
normal#0.400000#1.200000
  1
1999-10-20
 39
1
 62
0
  0
LINE
  8
border
  6
CONTINUOUS
 10
287.000031
 20
10.000061
 11
287.000000
 21
200.000000
 39
2
 62
0
  0
LINE
  8
border
  6
CONTINUOUS
 10
10.000000
 20
200.000000
 11
10.000000
 21
10.000000
 39
2
 62
0
  0
LINE
  8
border
  6
CONTINUOUS
 10
287.000000
 20
200.000000
 11
10.000000
 21
200.000000
 39
2
 62
0
  0
CIRCLE
  8
default
  6
CONTINUOUS
 10
80.000000
 20
120.000000
 40
50.000000
 39
2
 62
0
  0
CIRCLE
  8
default
  6
CONTINUOUS
 10
80.000000
 20
120.000000
 40
10.000000
 39
2
 62
0
  0
CIRCLE
  8
default
  6
CONTINUOUS
 10
80.000000
 20
120.000000
 40
14.000000
 39
2
 62
0
  0
LINE
  8
default
  6
DASHDOT
 10
80.000000
 20
180.000000
 11
80.000000
 21
60.000000
 39
1
 62
12
  0
CIRCLE
  8
default
  6
DASHDOT
 10
80.000000
 20
120.000000
 40
32.000000
 39
0
 62
12
  0
ARC
  8
default
  6
CONTINUOUS
 10
80.000000
 20
152.000000
 40
7.000000
 50
0.000000
 51
180.000000
 39
2
 62
0
  0
CIRCLE
  8
default
  6
CONTINUOUS
 10
80.000000
 20
152.000000
 40
4.000000
 39
2
 62
0
  0
LINE
  8
(null)
  6
CONTINUOUS
 10
73.000000
 20
152.000000
 11
73.000000
 21
132.124359
 39
2
 62
0
  0
LINE
  8
(null)
  6
CONTINUOUS
 10
87.000000
 20
152.000000
 11
87.000000
 21
132.124359
 39
2
 62
0
  0
LINE
  8
default
  6
DASHDOT
 10
122.426407
 20
162.426407
 11
37.573593
 21
77.573593
 39
1
 62
12
  0
LINE
  8
(null)
  6
CONTINUOUS
 10
117.412971
 20
153.170303
 11
91.790894
 21
127.548172
 39
2
 62
0
  0
LINE
  8
(null)
  6
CONTINUOUS
 10
113.170311
 20
157.412964
 11
87.548210
 21
131.790863
 39
2
 62
0
  0
ARC
  8
default
  6
CONTINUOUS
 10
48.000000
 20
120.000000
 40
7.000000
 50
90.000000
 51
270.000000
 39
2
 62
0
  0
CIRCLE
  8
default
  6
CONTINUOUS
 10
48.000000
 20
120.000000
 40
4.000000
 39
2
 62
0
  0
LINE
  8
(null)
  6
CONTINUOUS
 10
48.000000
 20
113.000000
 11
67.875641
 21
113.000000
 39
2
 62
0
  0
LINE
  8
(null)
  6
CONTINUOUS
 10
48.000000
 20
127.000000
 11
67.875641
 21
127.000000
 39
2
 62
0
  0
LINE
  8
(null)
  6
CONTINUOUS
 10
46.829697
 20
157.412979
 11
72.451828
 21
131.790894
 39
2
 62
0
  0
LINE
  8
(null)
  6
CONTINUOUS
 10
42.587036
 20
153.170319
 11
68.209137
 21
127.548210
 39
2
 62
0
  0
ARC
  8
default
  6
CONTINUOUS
 10
80.000000
 20
88.000000
 40
7.000000
 50
180.000000
 51
0.000000
 39
2
 62
0
  0
CIRCLE
  8
default
  6
CONTINUOUS
 10
80.000000
 20
88.000000
 40
4.000000
 39
2
 62
0
  0
LINE
  8
(null)
  6
CONTINUOUS
 10
87.000000
 20
88.000000
 11
87.000000
 21
107.875641
 39
2
 62
0
  0
LINE
  8
(null)
  6
CONTINUOUS
 10
73.000000
 20
88.000000
 11
73.000000
 21
107.875641
 39
2
 62
0
  0
LINE
  8
(null)
  6
CONTINUOUS
 10
42.587029
 20
86.829697
 11
68.209106
 21
112.451828
 39
2
 62
0
  0
LINE
  8
(null)
  6
CONTINUOUS
 10
46.829685
 20
82.587036
 11
72.451790
 21
108.209137
 39
2
 62
0
  0
ARC
  8
default
  6
CONTINUOUS
 10
112.000000
 20
120.000000
 40
7.000000
 50
270.000000
 51
90.000000
 39
2
 62
0
  0
CIRCLE
  8
default
  6
CONTINUOUS
 10
112.000000
 20
120.000000
 40
4.000000
 39
2
 62
0
  0
LINE
  8
(null)
  6
CONTINUOUS
 10
112.000000
 20
127.000000
 11
92.124359
 21
127.000000
 39
2
 62
0
  0
LINE
  8
(null)
  6
CONTINUOUS
 10
112.000000
 20
113.000000
 11
92.124359
 21
113.000000
 39
2
 62
0
  0
LINE
  8
(null)
  6
CONTINUOUS
 10
113.170319
 20
82.587036
 11
87.548172
 21
108.209106
 39
2
 62
0
  0
LINE
  8
(null)
  6
CONTINUOUS
 10
117.412964
 20
86.829681
 11
91.790863
 21
112.451790
 39
2
 62
0
  0
LINE
  8
default
  6
DASHDOT
 10
37.573593
 20
162.426407
 11
122.426422
 21
77.573593
 39
1
 62
12
  0
LINE
  8
default
  6
DASHDOT
 10
20.000000
 20
120.000000
 11
140.000000
 21
120.000000
 39
1
 62
12
  0
LINE
  8
default
  6
DASHDOT
 10
37.573593
 20
162.426407
 11
122.426407
 21
77.573593
 39
1
 62
12
  0
LINE
  8
default
  6
DASHDOT
 10
37.573593
 20
77.573593
 11
122.426407
 21
162.426407
 39
1
 62
12
  0
LINE
  8
default
  6
DASHDOT
 10
20.000000
 20
120.000000
 11
140.000000
 21
120.000000
 39
1
 62
12
  0
DIMENSION
  8
default
  6
CONTINUOUS
  1
 
 10
72.000000
 20
183.000000
 13
72.000000
 23
183.000000
 14
80.000000
 24
183.000000
 70
7
 39
1
 62
0
  0
DIMENSION
  8
default
  6
CONTINUOUS
  1
 
 10
30.343147
 20
81.656853
 13
30.343147
 23
81.656853
 14
36.000000
 24
76.000000
 70
7
 39
1
 62
0
  0
LINE
  8
default
  6
DASHDOT
 10
260.000000
 20
120.000000
 11
180.000000
 21
120.000000
 39
1
 62
12
  0
LINE
  8
default
  6
CONTINUOUS
 10
190.000000
 20
70.000000
 11
200.000000
 21
70.000000
 39
2
 62
0
  0
LINE
  8
default
  6
CONTINUOUS
 10
190.000000
 20
110.000000
 11
250.000000
 21
110.000000
 39
2
 62
0
  0
LINE
  8
default
  6
CONTINUOUS
 10
190.000000
 20
130.000000
 11
250.000000
 21
130.000000
 39
2
 62
0
  0
LINE
  8
default
  6
CONTINUOUS
 10
190.000000
 20
170.000000
 11
200.000000
 21
170.000000
 39
2
 62
0
  0
LINE
  8
default
  6
CONTINUOUS
 10
200.000000
 20
170.000000
 11
200.000015
 21
159.000000
 39
2
 62
0
  0
LINE
  8
default
  6
CONTINUOUS
 10
200.000015
 20
159.000000
 11
210.000000
 21
159.000000
 39
2
 62
0
  0
LINE
  8
default
  6
CONTINUOUS
 10
190.000000
 20
156.000000
 11
210.000000
 21
156.000000
 39
2
 62
0
  0
LINE
  8
default
  6
CONTINUOUS
 10
190.000000
 20
148.000000
 11
210.000000
 21
148.000000
 39
2
 62
0
  0
ARC
  8
(null)
  6
CONTINUOUS
 10
205.000000
 20
101.000000
 40
5.000000
 50
90.000000
 51
180.000000
 39
2
 62
0
  0
LINE
  8
default
  6
CONTINUOUS
 10
200.000000
 20
70.000000
 11
200.000000
 21
101.000000
 39
2
 62
0
  0
ARC
  8
(null)
  6
CONTINUOUS
 10
215.000015
 20
139.000000
 40
5.000000
 50
180.000000
 51
270.000000
 39
2
 62
0
  0
ARC
  8
(null)
  6
CONTINUOUS
 10
247.000000
 20
131.000000
 40
3.000000
 50
0.000000
 51
90.000000
 39
2
 62
0
  0
LINE
  8
default
  6
CONTINUOUS
 10
215.000015
 20
134.000000
 11
247.000000
 21
134.000000
 39
2
 62
0
  0
ARC
  8
(null)
  6
CONTINUOUS
 10
247.000000
 20
109.000000
 40
3.000000
 50
270.000000
 51
0.000000
 39
2
 62
0
  0
LINE
  8
default
  6
CONTINUOUS
 10
205.000000
 20
106.000000
 11
247.000000
 21
106.000000
 39
2
 62
0
  0
LINE
  8
(null)
  6
CONTINUOUS
 10
200.000000
 20
70.000000
 11
248.799988
 21
106.599998
 39
2
 62
0
  0
LINE
  8
default
  6
DASHDOT
 10
180.000000
 20
152.000000
 11
220.000000
 21
152.000000
 39
1
 62
12
  0
LINE
  8
default
  6
CONTINUOUS
 10
190.000000
 20
170.000000
 11
190.000000
 21
156.000000
 39
2
 62
0
  0
LINE
  8
default
  6
CONTINUOUS
 10
190.000000
 20
156.000000
 11
190.000000
 21
148.000000
 39
2
 62
0
  0
LINE
  8
default
  6
CONTINUOUS
 10
210.000000
 20
159.000000
 11
210.000000
 21
156.000000
 39
2
 62
0
  0
LINE
  8
default
  6
CONTINUOUS
 10
210.000000
 20
156.000000
 11
210.000000
 21
148.000000
 39
2
 62
0
  0
LINE
  8
default
  6
CONTINUOUS
 10
210.000000
 20
148.000000
 11
210.000015
 21
139.000000
 39
2
 62
0
  0
LINE
  8
default
  6
CONTINUOUS
 10
250.000000
 20
131.000000
 11
250.000000
 21
130.000000
 39
2
 62
0
  0
LINE
  8
default
  6
CONTINUOUS
 10
190.000000
 20
148.000000
 11
190.000000
 21
130.000000
 39
2
 62
0
  0
LINE
  8
default
  6
CONTINUOUS
 10
190.000000
 20
130.000000
 11
190.000000
 21
110.000000
 39
2
 62
0
  0
LINE
  8
default
  6
CONTINUOUS
 10
190.000000
 20
110.000000
 11
190.000000
 21
70.000000
 39
2
 62
0
  0
LINE
  8
default
  6
CONTINUOUS
 10
250.000000
 20
130.000000
 11
250.000000
 21
110.000000
 39
2
 62
0
  0
LINE
  8
default
  6
CONTINUOUS
 10
250.000000
 20
110.000000
 11
250.000000
 21
109.000000
 39
2
 62
0
  0
LINE
  8
default
  6
CONTINUOUS
 10
80.000000
 20
180.000000
 11
80.000000
 21
185.000000
 39
3
 62
0
  0
LINE
  8
default
  6
CONTINUOUS
 10
37.573593
 20
77.573593
 11
34.038059
 21
74.038055
 39
3
 62
0
  0
LINE
  8
default
  6
CONTINUOUS
 10
80.000000
 20
120.000000
 11
80.000000
 21
126.000000
 39
3
 62
0
  0
LINE
  8
default
  6
CONTINUOUS
 10
80.000000
 20
120.000000
 11
76.000000
 21
116.000000
 39
3
 62
0
  0
TEXT
  8
default
  6
CONTINUOUS
 10
73.471222
 20
185.449646
 40
6.000000
 50
0.000000
 72
0
  7
cursive#0.600000#3.600000
  1
A
 39
2
 62
0
  0
TEXT
  8
default
  6
CONTINUOUS
 10
27.014389
 20
72.140289
 40
6.000000
 50
0.000000
 72
0
  7
cursive#0.600000#3.600000
  1
A
 39
2
 62
0
  0
TEXT
  8
default
  6
CONTINUOUS
 10
210.000000
 20
180.000000
 40
6.000000
 50
0.000000
 72
0
  7
cursive#0.600000#3.600000
  1
A-A
 39
2
 62
0
  0
HATCH
  8
default
  6
CONTINUOUS
  1
 
  2
45
 70
0
 91
1
 72
1
 10
190.000000
 20
70.000000
 11
200.000000
 21
70.000000
 72
1
 10
190.000000
 20
110.000000
 11
250.000000
 21
110.000000
 72
1
 10
190.000000
 20
130.000000
 11
250.000000
 21
130.000000
 72
1
 10
190.000000
 20
170.000000
 11
200.000000
 21
170.000000
 72
1
 10
200.000000
 20
170.000000
 11
200.000015
 21
159.000000
 72
1
 10
200.000015
 20
159.000000
 11
210.000000
 21
159.000000
 72
1
 10
190.000000
 20
156.000000
 11
210.000000
 21
156.000000
 72
1
 10
190.000000
 20
148.000000
 11
210.000000
 21
148.000000
 72
2
 10
205.000000
 20
101.000000
 40
5.000000
 50
90.000000
 51
180.000000
 73
0
 72
1
 10
200.000000
 20
70.000000
 11
200.000000
 21
101.000000
 72
2
 10
215.000015
 20
139.000000
 40
5.000000
 50
180.000000
 51
270.000000
 73
0
 72
2
 10
247.000000
 20
131.000000
 40
3.000000
 50
0.000000
 51
90.000000
 73
0
 72
1
 10
215.000015
 20
134.000000
 11
247.000000
 21
134.000000
 72
2
 10
247.000000
 20
109.000000
 40
3.000000
 50
270.000000
 51
0.000000
 73
0
 72
1
 10
205.000000
 20
106.000000
 11
247.000000
 21
106.000000
 72
1
 10
190.000000
 20
170.000000
 11
190.000000
 21
156.000000
 72
1
 10
210.000000
 20
159.000000
 11
210.000000
 21
156.000000
 72
1
 10
210.000000
 20
148.000000
 11
210.000015
 21
139.000000
 72
1
 10
250.000000
 20
131.000000
 11
250.000000
 21
130.000000
 72
1
 10
190.000000
 20
148.000000
 11
190.000000
 21
130.000000
 72
1
 10
190.000000
 20
110.000000
 11
190.000000
 21
70.000000
 72
1
 10
250.000000
 20
110.000000
 11
250.000000
 21
109.000000
 75
0
 76
1
 52
0.000000
 91
1
 41
2.000000
 77
0
 39
1
 62
0
  0
TEXT
  8
default
  6
CONTINUOUS
 10
152.000000
 20
13.000000
 40
5.000000
 50
0.000000
 72
0
  7
cursive#0.500000#3.000000
  1
Example 3
 39
2
 62
0
  0
ENDSEC
  0
EOF
