  0
SECTION
  2
HEADER
  9
$LIMMIN
 10
0.000000
 20
0.000000
  9
$LIMMAX
 10
287.000031
 20
200.000000
  9
$EXTMIN
 10
0.000000
 20
0.000000
  9
$EXTMAX
 10
287.000031
 20
200.000000
  9
$ANGBASE
 50
0.000000
  9
$ANGDIR
 70
0
  9
$INSUNITS
 70
4
  9
$DIMALT
 70
4
  9
$DIMLUNIT
 70
2
  9
$DIMASZ
 40
3.000000
  9
$DIMTXT
 40
5.000000
  9
$DIMRND
 40
0.010000
  9
$DIMEXE
 40
2.000000
  9
$DIMEXO
 40
2.000000
  9
$DIMAUNIT
 70
0
  9
$DIMADEC
 70
2
  9
$GRIDUNIT
 10
0.001000
 20
0.001000
  9
$PLIMMIN
 10
0.000000
 20
0.000000
  9
$PLIMMAX
 10
297.000000
 20
210.000000
  9
$PSVPSCALE
 40
1.000000
  0
ENDSEC
  0
SECTION
  2
TABLES
  0
TABLE
  2
LTYPE
 70
     1
  0
LTYPE
  2
CONTINUOUS
 70
    64
  3
Ausgez
 72
    65
 73
  0
 40
0.000000
  0
ENDTAB
  0
TABLE
  2
LAYER
 70
     1
  0
LAYER
  2
default
 70
    64
 39
0
 62
0
  6
CONTINUOUS
  0
LAYER
  2
border
 70
    64
 39
0
 62
0
  6
CONTINUOUS
  0
ENDTAB
  0
ENDSEC
  0
SECTION
  2
BLOCKS
  0
ENDSEC
  0
SECTION
  2
ENTITIES
  0
LINE
  8
border
  6
CONTINUOUS
 10
241.000031
 20
10.000061
 11
241.000031
 21
23.000051
 39
2
 62
0
  0
LINE
  8
border
  6
CONTINUOUS
 10
107.000031
 20
23.000025
 11
287.000031
 21
23.000061
 39
2
 62
0
  0
LINE
  8
border
  6
CONTINUOUS
 10
147.000031
 20
10.000061
 11
147.000031
 21
35.000032
 39
2
 62
0
  0
LINE
  8
border
  6
CONTINUOUS
 10
272.000031
 20
39.000057
 11
287.000031
 21
39.000061
 39
2
 62
0
  0
LINE
  8
border
  6
CONTINUOUS
 10
107.000031
 20
35.000025
 11
272.000031
 21
35.000057
 39
2
 62
0
  0
LINE
  8
border
  6
CONTINUOUS
 10
274.000000
 20
36.000000
 11
274.000000
 21
34.000000
 39
2
 62
0
  0
LINE
  8
border
  6
CONTINUOUS
 10
278.000000
 20
37.000000
 11
278.000000
 21
33.000000
 39
2
 62
0
  0
LINE
  8
border
  6
CONTINUOUS
 10
278.000000
 20
33.000000
 11
274.000000
 21
34.000000
 39
2
 62
0
  0
LINE
  8
border
  6
CONTINUOUS
 10
274.000000
 20
36.000000
 11
278.000000
 21
37.000000
 39
2
 62
0
  0
CIRCLE
  8
border
  6
CONTINUOUS
 10
283.000000
 20
35.000000
 40
2.000000
 39
2
 62
0
  0
CIRCLE
  8
border
  6
CONTINUOUS
 10
283.000000
 20
35.000000
 40
1.000000
 39
2
 62
0
  0
LINE
  8
border
  6
CONTINUOUS
 10
107.000031
 20
51.000015
 11
287.000031
 21
51.000061
 39
2
 62
0
  0
LINE
  8
border
  6
CONTINUOUS
 10
257.000031
 20
23.000058
 11
257.000031
 21
31.000053
 39
2
 62
0
  0
LINE
  8
border
  6
CONTINUOUS
 10
165.000031
 20
23.000036
 11
165.000031
 21
27.000036
 39
0
 62
0
  0
LINE
  8
border
  6
CONTINUOUS
 10
197.000031
 20
31.000042
 11
287.000031
 21
31.000059
 39
2
 62
0
  0
LINE
  8
border
  6
CONTINUOUS
 10
147.000031
 20
27.000032
 11
197.000031
 21
27.000042
 39
2
 62
0
  0
LINE
  8
border
  6
CONTINUOUS
 10
107.000031
 20
27.000025
 11
147.000031
 21
27.000032
 39
1
 62
0
  0
LINE
  8
border
  6
CONTINUOUS
 10
107.000031
 20
31.000025
 11
147.000031
 21
31.000032
 39
1
 62
0
  0
LINE
  8
border
  6
DASHDOT
 10
273.000000
 20
35.000000
 11
286.000000
 21
35.000000
 39
1
 62
0
  0
LINE
  8
border
  6
DASHDOT
 10
283.000000
 20
38.000000
 11
283.000000
 21
32.000000
 39
1
 62
0
  0
LINE
  8
border
  6
CONTINUOUS
 10
215.000031
 20
51.000042
 11
215.000031
 21
23.000043
 39
1
 62
0
  0
LINE
  8
border
  6
CONTINUOUS
 10
197.000031
 20
27.000042
 11
257.000031
 21
27.000053
 39
1
 62
0
  0
LINE
  8
border
  6
CONTINUOUS
 10
197.000031
 20
51.000038
 11
197.000031
 21
23.000043
 39
2
 62
0
  0
LINE
  8
border
  6
CONTINUOUS
 10
107.000031
 20
10.000061
 11
107.000031
 21
65.000023
 39
2
 62
0
  0
LINE
  8
border
  6
CONTINUOUS
 10
272.000031
 20
23.000058
 11
272.000031
 21
65.000057
 39
2
 62
0
  0
LINE
  8
border
  6
CONTINUOUS
 10
152.000031
 20
35.000034
 11
152.000031
 21
51.000027
 39
2
 62
0
  0
LINE
  8
border
  6
CONTINUOUS
 10
121.000031
 20
35.000025
 11
121.000031
 21
51.000015
 39
1
 62
0
  0
LINE
  8
border
  6
CONTINUOUS
 10
125.000031
 20
35.000027
 11
125.000031
 21
51.000019
 39
1
 62
0
  0
LINE
  8
border
  6
CONTINUOUS
 10
121.000031
 20
47.000023
 11
152.000031
 21
47.000031
 39
1
 62
0
  0
LINE
  8
border
  6
CONTINUOUS
 10
121.000031
 20
43.000023
 11
152.000031
 21
43.000031
 39
1
 62
0
  0
LINE
  8
border
  6
CONTINUOUS
 10
121.000031
 20
39.000025
 11
152.000031
 21
39.000032
 39
1
 62
0
  0
LINE
  8
border
  6
CONTINUOUS
 10
166.000031
 20
35.000034
 11
166.000031
 21
51.000027
 39
1
 62
0
  0
LINE
  8
border
  6
CONTINUOUS
 10
170.000031
 20
35.000034
 11
170.000031
 21
51.000027
 39
1
 62
0
  0
LINE
  8
border
  6
CONTINUOUS
 10
166.000031
 20
47.000031
 11
272.000031
 21
47.000057
 39
1
 62
0
  0
LINE
  8
border
  6
CONTINUOUS
 10
166.000031
 20
43.000031
 11
272.000031
 21
43.000057
 39
1
 62
0
  0
LINE
  8
border
  6
CONTINUOUS
 10
166.000031
 20
39.000032
 11
272.000031
 21
39.000057
 39
1
 62
0
  0
LINE
  8
border
  6
CONTINUOUS
 10
242.000031
 20
51.000042
 11
242.000015
 21
35.000051
 39
1
 62
0
  0
LINE
  8
border
  6
CONTINUOUS
 10
107.000031
 20
57.000015
 11
287.000031
 21
57.000061
 39
2
 62
0
  0
LINE
  8
border
  6
CONTINUOUS
 10
107.000031
 20
63.000015
 11
287.000031
 21
63.000061
 39
1
 62
0
  0
LINE
  8
border
  6
CONTINUOUS
 10
117.000031
 20
51.000019
 11
117.000031
 21
65.000023
 39
2
 62
0
  0
LINE
  8
border
  6
CONTINUOUS
 10
127.000031
 20
51.000019
 11
127.000031
 21
65.000023
 39
2
 62
0
  0
LINE
  8
border
  6
CONTINUOUS
 10
137.000031
 20
51.000019
 11
137.000031
 21
65.000023
 39
2
 62
0
  0
LINE
  8
border
  6
CONTINUOUS
 10
177.000031
 20
51.000019
 11
177.000031
 21
65.000023
 39
2
 62
0
  0
LINE
  8
border
  6
CONTINUOUS
 10
10.000000
 20
10.000000
 11
287.000031
 21
10.000061
 39
2
 62
0
  0
TEXT
  8
border
  6
CONTINUOUS
 10
279.500000
 20
41.000000
 40
5.000000
 50
0.000000
 72
1
  7
normal#1.000000#3.000000
  1
1:1
 39
2
 62
0
  0
TEXT
  8
border
  6
CONTINUOUS
 10
258.999969
 20
27.999950
 40
1.500000
 50
0.000000
 72
0
  7
normal#0.300000#0.900000
  1
Pages
 39
1
 62
0
  0
TEXT
  8
border
  6
CONTINUOUS
 10
273.999969
 20
27.999950
 40
1.500000
 50
0.000000
 72
0
  7
normal#0.300000#0.900000
  1
Page
 39
1
 62
0
  0
TEXT
  8
border
  6
CONTINUOUS
 10
149.000000
 20
20.000000
 40
1.500000
 50
0.000000
 72
0
  7
normal#0.300000#0.900000
  1
Name
 39
1
 62
0
  0
TEXT
  8
border
  6
CONTINUOUS
 10
273.999969
 20
47.999950
 40
1.500000
 50
0.000000
 72
0
  7
normal#0.300000#0.900000
  1
Scale
 39
1
 62
0
  0
TEXT
  8
border
  6
CONTINUOUS
 10
199.000000
 20
24.000000
 40
2.000000
 50
0.000000
 72
0
  7
normal#0.400000#1.200000
  1
Replaces
 39
1
 62
0
  0
TEXT
  8
border
  6
CONTINUOUS
 10
199.000000
 20
28.000000
 40
2.000000
 50
0.000000
 72
0
  7
normal#0.400000#1.200000
  1
Source
 39
1
 62
0
  0
TEXT
  8
border
  6
CONTINUOUS
 10
199.000000
 20
36.000000
 40
2.000000
 50
0.000000
 72
0
  7
normal#0.400000#1.200000
  1
Released
 39
1
 62
0
  0
TEXT
  8
border
  6
CONTINUOUS
 10
199.000000
 20
40.000000
 40
2.000000
 50
0.000000
 72
0
  7
normal#0.400000#1.200000
  1
Norm proven
 39
1
 62
0
  0
TEXT
  8
border
  6
CONTINUOUS
 10
199.000000
 20
44.000000
 40
2.000000
 50
0.000000
 72
0
  7
normal#0.400000#1.200000
  1
Proven
 39
1
 62
0
  0
TEXT
  8
border
  6
CONTINUOUS
 10
199.000000
 20
32.000000
 40
2.000000
 50
0.000000
 72
0
  7
normal#0.400000#1.200000
  1
Order number
 39
1
 62
0
  0
TEXT
  8
border
  6
CONTINUOUS
 10
199.000000
 20
48.000000
 40
2.000000
 50
0.000000
 72
0
  7
normal#0.400000#1.200000
  1
Drawn
 39
1
 62
0
  0
TEXT
  8
border
  6
CONTINUOUS
 10
217.000000
 20
48.000000
 40
2.000000
 50
0.000000
 72
0
  7
normal#0.400000#1.200000
  1
1999-09-29
 39
1
 62
0
  0
TEXT
  8
border
  6
CONTINUOUS
 10
217.000000
 20
44.000000
 40
2.000000
 50
0.000000
 72
0
  7
normal#0.400000#1.200000
  1
1999-09-29
 39
1
 62
0
  0
TEXT
  8
border
  6
CONTINUOUS
 10
217.000000
 20
40.000000
 40
2.000000
 50
0.000000
 72
0
  7
normal#0.400000#1.200000
  1
1999-09-29
 39
1
 62
0
  0
TEXT
  8
border
  6
CONTINUOUS
 10
217.000000
 20
36.000000
 40
2.000000
 50
0.000000
 72
0
  7
normal#0.400000#1.200000
  1
1999-09-29
 39
1
 62
0
  0
TEXT
  8
border
  6
CONTINUOUS
 10
243.000000
 20
20.000000
 40
1.500000
 50
0.000000
 72
0
  7
normal#0.300000#0.900000
  1
ID
 39
1
 62
0
  0
TEXT
  8
border
  6
CONTINUOUS
 10
109.000000
 20
43.000000
 40
2.000000
 50
0.000000
 72
0
  7
normal#0.400000#1.200000
  1
Changed
 39
1
 62
0
  0
TEXT
  8
border
  6
CONTINUOUS
 10
154.000000
 20
43.000000
 40
2.000000
 50
0.000000
 72
0
  7
normal#0.400000#1.200000
  1
Changed
 39
1
 62
0
  0
TEXT
  8
border
  6
CONTINUOUS
 10
127.000000
 20
13.000000
 40
5.000000
 50
0.000000
 72
1
  7
cursive#0.500000#3.000000
  1
APS
 39
2
 62
0
  0
TEXT
  8
border
  6
CONTINUOUS
 10
109.000000
 20
20.000000
 40
1.500000
 50
0.000000
 72
0
  7
normal#0.300000#0.900000
  1
Firm
 39
1
 62
0
  0
TEXT
  8
border
  6
CONTINUOUS
 10
109.000000
 20
53.000000
 40
2.000000
 50
0.000000
 72
0
  7
normal#0.400000#1.200000
  1
Pos.
 39
1
 62
0
  0
TEXT
  8
border
  6
CONTINUOUS
 10
119.000000
 20
53.000000
 40
2.000000
 50
0.000000
 72
0
  7
normal#0.400000#1.200000
  1
Num.
 39
1
 62
0
  0
TEXT
  8
border
  6
CONTINUOUS
 10
129.000000
 20
53.000000
 40
2.000000
 50
0.000000
 72
0
  7
normal#0.400000#1.200000
  1
Unit
 39
1
 62
0
  0
TEXT
  8
border
  6
CONTINUOUS
 10
139.000000
 20
53.000000
 40
2.000000
 50
0.000000
 72
0
  7
normal#0.400000#1.200000
  1
Article Code
 39
1
 62
0
  0
TEXT
  8
border
  6
CONTINUOUS
 10
149.000000
 20
24.000000
 40
2.000000
 50
0.000000
 72
0
  7
normal#0.400000#1.200000
  1
Article Code
 39
1
 62
0
  0
TEXT
  8
border
  6
CONTINUOUS
 10
179.000000
 20
53.000000
 40
2.000000
 50
0.000000
 72
0
  7
normal#0.400000#1.200000
  1
Description
 39
1
 62
0
  0
TEXT
  8
default
  6
CONTINUOUS
 10
283.000000
 20
13.000000
 40
5.000000
 50
0.000000
 72
2
  7
cursive#0.500000#3.000000
  1
8 1601 09000
 39
2
 62
0
  0
LINE
  8
border
  6
CONTINUOUS
 10
287.000031
 20
10.000061
 11
287.000000
 21
200.000000
 39
2
 62
0
  0
LINE
  8
border
  6
CONTINUOUS
 10
10.000000
 20
200.000000
 11
10.000000
 21
10.000000
 39
2
 62
0
  0
LINE
  8
border
  6
CONTINUOUS
 10
287.000000
 20
200.000000
 11
10.000000
 21
200.000000
 39
2
 62
0
  0
LINE
  8
default
  6
CONTINUOUS
 10
20.000000
 20
170.000000
 11
60.000000
 21
170.000000
 39
0
 62
0
  0
LINE
  8
default
  6
CONTINUOUS
 10
20.000000
 20
160.000000
 11
60.000000
 21
160.000000
 39
1
 62
0
  0
LINE
  8
default
  6
CONTINUOUS
 10
20.000000
 20
150.000000
 11
60.000000
 21
150.000000
 39
2
 62
0
  0
LINE
  8
default
  6
CONTINUOUS
 10
20.000000
 20
140.000000
 11
60.000000
 21
140.000000
 39
3
 62
0
  0
LINE
  8
default
  6
CONTINUOUS
 10
20.000000
 20
130.000000
 11
60.000000
 21
130.000000
 39
4
 62
0
  0
LINE
  8
default
  6
CONTINUOUS
 10
20.000000
 20
120.000000
 11
60.000000
 21
120.000000
 39
5
 62
0
  0
LINE
  8
default
  6
CONTINUOUS
 10
20.000000
 20
110.000000
 11
60.000000
 21
110.000000
 39
6
 62
0
  0
LINE
  8
default
  6
CONTINUOUS
 10
20.000000
 20
100.000000
 11
60.000000
 21
100.000000
 39
7
 62
0
  0
LINE
  8
default
  6
CONTINUOUS
 10
20.000000
 20
90.000000
 11
60.000000
 21
90.000000
 39
8
 62
0
  0
LINE
  8
default
  6
DASH
 10
70.000000
 20
170.000000
 11
110.000000
 21
170.000000
 39
0
 62
0
  0
LINE
  8
default
  6
DASH
 10
70.000000
 20
160.000000
 11
110.000000
 21
160.000000
 39
1
 62
0
  0
LINE
  8
default
  6
DASH
 10
70.000000
 20
150.000000
 11
110.000000
 21
150.000000
 39
2
 62
0
  0
LINE
  8
default
  6
DASH
 10
70.000000
 20
140.000000
 11
110.000000
 21
140.000000
 39
3
 62
0
  0
LINE
  8
default
  6
DASH
 10
70.000000
 20
130.000000
 11
110.000000
 21
130.000000
 39
4
 62
0
  0
LINE
  8
default
  6
DASH
 10
70.000000
 20
120.000000
 11
110.000000
 21
120.000000
 39
5
 62
0
  0
LINE
  8
default
  6
DASH
 10
70.000000
 20
110.000000
 11
110.000000
 21
110.000000
 39
6
 62
0
  0
LINE
  8
default
  6
DASH
 10
70.000000
 20
100.000000
 11
110.000000
 21
100.000000
 39
7
 62
0
  0
LINE
  8
default
  6
DASH
 10
70.000000
 20
90.000000
 11
110.000000
 21
90.000000
 39
8
 62
0
  0
LINE
  8
default
  6
DOT
 10
120.000000
 20
170.000000
 11
160.000000
 21
170.000000
 39
0
 62
0
  0
LINE
  8
default
  6
DOT
 10
120.000000
 20
160.000000
 11
160.000000
 21
160.000000
 39
1
 62
0
  0
LINE
  8
default
  6
DOT
 10
120.000000
 20
150.000000
 11
160.000000
 21
150.000000
 39
2
 62
0
  0
LINE
  8
default
  6
DOT
 10
120.000000
 20
140.000000
 11
160.000000
 21
140.000000
 39
3
 62
0
  0
LINE
  8
default
  6
DOT
 10
120.000000
 20
130.000000
 11
160.000000
 21
130.000000
 39
4
 62
0
  0
LINE
  8
default
  6
DOT
 10
120.000000
 20
120.000000
 11
160.000000
 21
120.000000
 39
5
 62
0
  0
LINE
  8
default
  6
DOT
 10
120.000000
 20
110.000000
 11
160.000000
 21
110.000000
 39
6
 62
0
  0
LINE
  8
default
  6
DOT
 10
120.000000
 20
100.000000
 11
160.000000
 21
100.000000
 39
7
 62
0
  0
LINE
  8
default
  6
DOT
 10
120.000000
 20
90.000000
 11
160.000000
 21
90.000000
 39
8
 62
0
  0
LINE
  8
default
  6
DASHDOT
 10
170.000000
 20
170.000000
 11
210.000000
 21
170.000000
 39
0
 62
0
  0
LINE
  8
default
  6
DASHDOT
 10
170.000000
 20
160.000000
 11
210.000000
 21
160.000000
 39
1
 62
0
  0
LINE
  8
default
  6
DASHDOT
 10
170.000000
 20
150.000000
 11
210.000000
 21
150.000000
 39
2
 62
0
  0
LINE
  8
default
  6
DASHDOT
 10
170.000000
 20
140.000000
 11
210.000000
 21
140.000000
 39
3
 62
0
  0
LINE
  8
default
  6
DASHDOT
 10
170.000000
 20
130.000000
 11
210.000000
 21
130.000000
 39
4
 62
0
  0
LINE
  8
default
  6
DASHDOT
 10
170.000000
 20
120.000000
 11
210.000000
 21
120.000000
 39
5
 62
0
  0
LINE
  8
default
  6
DASHDOT
 10
170.000000
 20
110.000000
 11
210.000000
 21
110.000000
 39
6
 62
0
  0
LINE
  8
default
  6
DASHDOT
 10
170.000000
 20
100.000000
 11
210.000000
 21
100.000000
 39
7
 62
0
  0
LINE
  8
default
  6
DASHDOT
 10
170.000000
 20
90.000000
 11
210.000000
 21
90.000000
 39
8
 62
0
  0
LINE
  8
default
  6
DASHDOTDOT
 10
220.000000
 20
170.000000
 11
260.000000
 21
170.000000
 39
0
 62
0
  0
LINE
  8
default
  6
DASHDOTDOT
 10
220.000000
 20
160.000000
 11
260.000000
 21
160.000000
 39
1
 62
0
  0
LINE
  8
default
  6
DASHDOTDOT
 10
220.000000
 20
150.000000
 11
260.000000
 21
150.000000
 39
2
 62
0
  0
LINE
  8
default
  6
DASHDOTDOT
 10
220.000000
 20
140.000000
 11
260.000000
 21
140.000000
 39
3
 62
0
  0
LINE
  8
default
  6
DASHDOTDOT
 10
220.000000
 20
130.000000
 11
260.000000
 21
130.000000
 39
4
 62
0
  0
LINE
  8
default
  6
DASHDOTDOT
 10
220.000000
 20
120.000000
 11
260.000000
 21
120.000000
 39
5
 62
0
  0
LINE
  8
default
  6
DASHDOTDOT
 10
220.000000
 20
110.000000
 11
260.000000
 21
110.000000
 39
6
 62
0
  0
LINE
  8
default
  6
DASHDOTDOT
 10
220.000000
 20
100.000000
 11
260.000000
 21
100.000000
 39
7
 62
0
  0
LINE
  8
default
  6
DASHDOTDOT
 10
220.000000
 20
90.000000
 11
260.000000
 21
90.000000
 39
8
 62
0
  0
TEXT
  8
default
  6
CONTINUOUS
 10
270.000000
 20
168.000000
 40
5.000000
 50
0.000000
 72
0
  7
normal#1.000000#3.000000
  1
0
 39
2
 62
0
  0
TEXT
  8
default
  6
CONTINUOUS
 10
270.000000
 20
158.000000
 40
5.000000
 50
0.000000
 72
0
  7
normal#1.000000#3.000000
  1
1
 39
2
 62
0
  0
TEXT
  8
default
  6
CONTINUOUS
 10
270.000000
 20
148.000000
 40
5.000000
 50
0.000000
 72
0
  7
normal#1.000000#3.000000
  1
2
 39
2
 62
0
  0
TEXT
  8
default
  6
CONTINUOUS
 10
270.000000
 20
138.000000
 40
5.000000
 50
0.000000
 72
0
  7
normal#1.000000#3.000000
  1
3
 39
2
 62
0
  0
TEXT
  8
default
  6
CONTINUOUS
 10
270.000000
 20
128.000000
 40
5.000000
 50
0.000000
 72
0
  7
normal#1.000000#3.000000
  1
4
 39
2
 62
0
  0
TEXT
  8
default
  6
CONTINUOUS
 10
270.000000
 20
118.000000
 40
5.000000
 50
0.000000
 72
0
  7
normal#1.000000#3.000000
  1
5
 39
2
 62
0
  0
TEXT
  8
default
  6
CONTINUOUS
 10
270.000000
 20
108.000000
 40
5.000000
 50
0.000000
 72
0
  7
normal#1.000000#3.000000
  1
6
 39
2
 62
0
  0
TEXT
  8
default
  6
CONTINUOUS
 10
270.000000
 20
98.000000
 40
5.000000
 50
0.000000
 72
0
  7
normal#1.000000#3.000000
  1
7
 39
2
 62
0
  0
TEXT
  8
default
  6
CONTINUOUS
 10
270.000000
 20
88.000000
 40
5.000000
 50
0.000000
 72
0
  7
normal#1.000000#3.000000
  1
8
 39
2
 62
0
  0
TEXT
  8
default
  6
CONTINUOUS
 10
152.000000
 20
13.000000
 40
5.000000
 50
0.000000
 72
0
  7
cursive#0.500000#3.000000
  1
Styles
 39
2
 62
0
  0
ENDSEC
  0
EOF
