  0
SECTION
  2
HEADER
  9
$LIMMIN
 10
0.000000
 20
0.000000
  9
$LIMMAX
 10
287.000031
 20
200.000000
  9
$EXTMIN
 10
0.000000
 20
0.000000
  9
$EXTMAX
 10
287.000031
 20
200.000000
  9
$ANGBASE
 50
0.000000
  9
$ANGDIR
 70
0
  9
$INSUNITS
 70
4
  9
$DIMALT
 70
4
  9
$DIMLUNIT
 70
2
  9
$DIMASZ
 40
3.000000
  9
$DIMTXT
 40
5.000000
  9
$DIMRND
 40
0.010000
  9
$DIMEXE
 40
2.000000
  9
$DIMEXO
 40
2.000000
  9
$DIMAUNIT
 70
0
  9
$DIMADEC
 70
2
  9
$GRIDUNIT
 10
0.001000
 20
0.001000
  9
$PLIMMIN
 10
0.000000
 20
0.000000
  9
$PLIMMAX
 10
297.000000
 20
210.000000
  9
$PSVPSCALE
 40
1.000000
  0
ENDSEC
  0
SECTION
  2
TABLES
  0
TABLE
  2
LTYPE
 70
     1
  0
LTYPE
  2
CONTINUOUS
 70
    64
  3
Ausgez
 72
    65
 73
  0
 40
0.000000
  0
ENDTAB
  0
TABLE
  2
LAYER
 70
     1
  0
LAYER
  2
default
 70
    64
 39
0
 62
0
  6
CONTINUOUS
  0
LAYER
  2
border
 70
    64
 39
0
 62
0
  6
CONTINUOUS
  0
ENDTAB
  0
ENDSEC
  0
SECTION
  2
BLOCKS
  0
ENDSEC
  0
SECTION
  2
ENTITIES
  0
LINE
  8
border
  6
CONTINUOUS
 10
241.000031
 20
10.000061
 11
241.000031
 21
23.000051
 39
2
 62
0
  0
LINE
  8
border
  6
CONTINUOUS
 10
107.000031
 20
23.000025
 11
287.000031
 21
23.000061
 39
2
 62
0
  0
LINE
  8
border
  6
CONTINUOUS
 10
147.000031
 20
10.000061
 11
147.000031
 21
35.000032
 39
2
 62
0
  0
LINE
  8
border
  6
CONTINUOUS
 10
272.000031
 20
39.000057
 11
287.000031
 21
39.000061
 39
2
 62
0
  0
LINE
  8
border
  6
CONTINUOUS
 10
107.000031
 20
35.000025
 11
272.000031
 21
35.000057
 39
2
 62
0
  0
LINE
  8
border
  6
CONTINUOUS
 10
274.000000
 20
36.000000
 11
274.000000
 21
34.000000
 39
2
 62
0
  0
LINE
  8
border
  6
CONTINUOUS
 10
278.000000
 20
37.000000
 11
278.000000
 21
33.000000
 39
2
 62
0
  0
LINE
  8
border
  6
CONTINUOUS
 10
278.000000
 20
33.000000
 11
274.000000
 21
34.000000
 39
2
 62
0
  0
LINE
  8
border
  6
CONTINUOUS
 10
274.000000
 20
36.000000
 11
278.000000
 21
37.000000
 39
2
 62
0
  0
CIRCLE
  8
border
  6
CONTINUOUS
 10
283.000000
 20
35.000000
 40
2.000000
 39
2
 62
0
  0
CIRCLE
  8
border
  6
CONTINUOUS
 10
283.000000
 20
35.000000
 40
1.000000
 39
2
 62
0
  0
LINE
  8
border
  6
CONTINUOUS
 10
107.000031
 20
51.000015
 11
287.000031
 21
51.000061
 39
2
 62
0
  0
LINE
  8
border
  6
CONTINUOUS
 10
257.000031
 20
23.000058
 11
257.000031
 21
31.000053
 39
2
 62
0
  0
LINE
  8
border
  6
CONTINUOUS
 10
165.000031
 20
23.000036
 11
165.000031
 21
27.000036
 39
0
 62
0
  0
LINE
  8
border
  6
CONTINUOUS
 10
197.000031
 20
31.000042
 11
287.000031
 21
31.000059
 39
2
 62
0
  0
LINE
  8
border
  6
CONTINUOUS
 10
147.000031
 20
27.000032
 11
197.000031
 21
27.000042
 39
2
 62
0
  0
LINE
  8
border
  6
CONTINUOUS
 10
107.000031
 20
27.000025
 11
147.000031
 21
27.000032
 39
1
 62
0
  0
LINE
  8
border
  6
CONTINUOUS
 10
107.000031
 20
31.000025
 11
147.000031
 21
31.000032
 39
1
 62
0
  0
LINE
  8
border
  6
DASHDOT
 10
273.000000
 20
35.000000
 11
286.000000
 21
35.000000
 39
1
 62
0
  0
LINE
  8
border
  6
DASHDOT
 10
283.000000
 20
38.000000
 11
283.000000
 21
32.000000
 39
1
 62
0
  0
LINE
  8
border
  6
CONTINUOUS
 10
215.000031
 20
51.000042
 11
215.000031
 21
23.000043
 39
1
 62
0
  0
LINE
  8
border
  6
CONTINUOUS
 10
197.000031
 20
27.000042
 11
257.000031
 21
27.000053
 39
1
 62
0
  0
LINE
  8
border
  6
CONTINUOUS
 10
197.000031
 20
51.000038
 11
197.000031
 21
23.000043
 39
2
 62
0
  0
LINE
  8
border
  6
CONTINUOUS
 10
107.000031
 20
10.000061
 11
107.000031
 21
65.000023
 39
2
 62
0
  0
LINE
  8
border
  6
CONTINUOUS
 10
272.000031
 20
23.000058
 11
272.000031
 21
65.000057
 39
2
 62
0
  0
LINE
  8
border
  6
CONTINUOUS
 10
152.000031
 20
35.000034
 11
152.000031
 21
51.000027
 39
2
 62
0
  0
LINE
  8
border
  6
CONTINUOUS
 10
121.000031
 20
35.000025
 11
121.000031
 21
51.000015
 39
1
 62
0
  0
LINE
  8
border
  6
CONTINUOUS
 10
125.000031
 20
35.000027
 11
125.000031
 21
51.000019
 39
1
 62
0
  0
LINE
  8
border
  6
CONTINUOUS
 10
121.000031
 20
47.000023
 11
152.000031
 21
47.000031
 39
1
 62
0
  0
LINE
  8
border
  6
CONTINUOUS
 10
121.000031
 20
43.000023
 11
152.000031
 21
43.000031
 39
1
 62
0
  0
LINE
  8
border
  6
CONTINUOUS
 10
121.000031
 20
39.000025
 11
152.000031
 21
39.000032
 39
1
 62
0
  0
LINE
  8
border
  6
CONTINUOUS
 10
166.000031
 20
35.000034
 11
166.000031
 21
51.000027
 39
1
 62
0
  0
LINE
  8
border
  6
CONTINUOUS
 10
170.000031
 20
35.000034
 11
170.000031
 21
51.000027
 39
1
 62
0
  0
LINE
  8
border
  6
CONTINUOUS
 10
166.000031
 20
47.000031
 11
272.000031
 21
47.000057
 39
1
 62
0
  0
LINE
  8
border
  6
CONTINUOUS
 10
166.000031
 20
43.000031
 11
272.000031
 21
43.000057
 39
1
 62
0
  0
LINE
  8
border
  6
CONTINUOUS
 10
166.000031
 20
39.000032
 11
272.000031
 21
39.000057
 39
1
 62
0
  0
LINE
  8
border
  6
CONTINUOUS
 10
242.000031
 20
51.000042
 11
242.000015
 21
35.000051
 39
1
 62
0
  0
LINE
  8
border
  6
CONTINUOUS
 10
107.000031
 20
57.000015
 11
287.000031
 21
57.000061
 39
2
 62
0
  0
LINE
  8
border
  6
CONTINUOUS
 10
107.000031
 20
63.000015
 11
287.000031
 21
63.000061
 39
1
 62
0
  0
LINE
  8
border
  6
CONTINUOUS
 10
117.000031
 20
51.000019
 11
117.000031
 21
65.000023
 39
2
 62
0
  0
LINE
  8
border
  6
CONTINUOUS
 10
127.000031
 20
51.000019
 11
127.000031
 21
65.000023
 39
2
 62
0
  0
LINE
  8
border
  6
CONTINUOUS
 10
137.000031
 20
51.000019
 11
137.000031
 21
65.000023
 39
2
 62
0
  0
LINE
  8
border
  6
CONTINUOUS
 10
177.000031
 20
51.000019
 11
177.000031
 21
65.000023
 39
2
 62
0
  0
LINE
  8
border
  6
CONTINUOUS
 10
10.000000
 20
10.000000
 11
287.000031
 21
10.000061
 39
2
 62
0
  0
TEXT
  8
border
  6
CONTINUOUS
 10
279.500000
 20
41.000000
 40
5.000000
 50
0.000000
 72
1
  7
Normal#1.000000#3.000000
  1
1:1
 39
2
 62
0
  0
TEXT
  8
border
  6
CONTINUOUS
 10
258.999969
 20
27.999950
 40
1.500000
 50
0.000000
 72
0
  7
Normal#0.300000#0.900000
  1
Pages
 39
1
 62
0
  0
TEXT
  8
border
  6
CONTINUOUS
 10
273.999969
 20
27.999950
 40
1.500000
 50
0.000000
 72
0
  7
Normal#0.300000#0.900000
  1
Page
 39
1
 62
0
  0
TEXT
  8
border
  6
CONTINUOUS
 10
149.000000
 20
20.000000
 40
1.500000
 50
0.000000
 72
0
  7
Normal#0.300000#0.900000
  1
Name
 39
1
 62
0
  0
TEXT
  8
border
  6
CONTINUOUS
 10
273.999969
 20
47.999950
 40
1.500000
 50
0.000000
 72
0
  7
Normal#0.300000#0.900000
  1
Scale
 39
1
 62
0
  0
TEXT
  8
border
  6
CONTINUOUS
 10
199.000000
 20
24.000000
 40
2.000000
 50
0.000000
 72
0
  7
Normal#0.400000#1.200000
  1
Replaces
 39
1
 62
0
  0
TEXT
  8
border
  6
CONTINUOUS
 10
199.000000
 20
28.000000
 40
2.000000
 50
0.000000
 72
0
  7
Normal#0.400000#1.200000
  1
Source
 39
1
 62
0
  0
TEXT
  8
border
  6
CONTINUOUS
 10
199.000000
 20
36.000000
 40
2.000000
 50
0.000000
 72
0
  7
Normal#0.400000#1.200000
  1
Released
 39
1
 62
0
  0
TEXT
  8
border
  6
CONTINUOUS
 10
199.000000
 20
40.000000
 40
2.000000
 50
0.000000
 72
0
  7
Normal#0.400000#1.200000
  1
Norm proven
 39
1
 62
0
  0
TEXT
  8
border
  6
CONTINUOUS
 10
199.000000
 20
44.000000
 40
2.000000
 50
0.000000
 72
0
  7
Normal#0.400000#1.200000
  1
Proven
 39
1
 62
0
  0
TEXT
  8
border
  6
CONTINUOUS
 10
199.000000
 20
32.000000
 40
2.000000
 50
0.000000
 72
0
  7
Normal#0.400000#1.200000
  1
Order number
 39
1
 62
0
  0
TEXT
  8
border
  6
CONTINUOUS
 10
199.000000
 20
48.000000
 40
2.000000
 50
0.000000
 72
0
  7
Normal#0.400000#1.200000
  1
Drawn
 39
1
 62
0
  0
TEXT
  8
border
  6
CONTINUOUS
 10
217.000000
 20
48.000000
 40
2.000000
 50
0.000000
 72
0
  7
Normal#0.400000#1.200000
  1
1999-09-29
 39
1
 62
0
  0
TEXT
  8
border
  6
CONTINUOUS
 10
217.000000
 20
44.000000
 40
2.000000
 50
0.000000
 72
0
  7
Normal#0.400000#1.200000
  1
1999-09-29
 39
1
 62
0
  0
TEXT
  8
border
  6
CONTINUOUS
 10
217.000000
 20
40.000000
 40
2.000000
 50
0.000000
 72
0
  7
Normal#0.400000#1.200000
  1
1999-09-29
 39
1
 62
0
  0
TEXT
  8
border
  6
CONTINUOUS
 10
217.000000
 20
36.000000
 40
2.000000
 50
0.000000
 72
0
  7
Normal#0.400000#1.200000
  1
1999-09-29
 39
1
 62
0
  0
TEXT
  8
border
  6
CONTINUOUS
 10
243.000000
 20
20.000000
 40
1.500000
 50
0.000000
 72
0
  7
Normal#0.300000#0.900000
  1
ID
 39
1
 62
0
  0
TEXT
  8
border
  6
CONTINUOUS
 10
109.000000
 20
43.000000
 40
2.000000
 50
0.000000
 72
0
  7
Normal#0.400000#1.200000
  1
Changed
 39
1
 62
0
  0
TEXT
  8
border
  6
CONTINUOUS
 10
154.000000
 20
43.000000
 40
2.000000
 50
0.000000
 72
0
  7
Normal#0.400000#1.200000
  1
Changed
 39
1
 62
0
  0
TEXT
  8
border
  6
CONTINUOUS
 10
127.000000
 20
13.000000
 40
5.000000
 50
0.000000
 72
1
  7
Cursive#0.500000#3.000000
  1
APS
 39
2
 62
0
  0
TEXT
  8
border
  6
CONTINUOUS
 10
109.000000
 20
20.000000
 40
1.500000
 50
0.000000
 72
0
  7
Normal#0.300000#0.900000
  1
Firm
 39
1
 62
0
  0
TEXT
  8
border
  6
CONTINUOUS
 10
109.000000
 20
53.000000
 40
2.000000
 50
0.000000
 72
0
  7
Normal#0.400000#1.200000
  1
Pos.
 39
1
 62
0
  0
TEXT
  8
border
  6
CONTINUOUS
 10
119.000000
 20
53.000000
 40
2.000000
 50
0.000000
 72
0
  7
Normal#0.400000#1.200000
  1
Num.
 39
1
 62
0
  0
TEXT
  8
border
  6
CONTINUOUS
 10
129.000000
 20
53.000000
 40
2.000000
 50
0.000000
 72
0
  7
Normal#0.400000#1.200000
  1
Unit
 39
1
 62
0
  0
TEXT
  8
border
  6
CONTINUOUS
 10
139.000000
 20
53.000000
 40
2.000000
 50
0.000000
 72
0
  7
Normal#0.400000#1.200000
  1
Article Code
 39
1
 62
0
  0
TEXT
  8
border
  6
CONTINUOUS
 10
149.000000
 20
24.000000
 40
2.000000
 50
0.000000
 72
0
  7
Normal#0.400000#1.200000
  1
Article Code
 39
1
 62
0
  0
TEXT
  8
border
  6
CONTINUOUS
 10
179.000000
 20
53.000000
 40
2.000000
 50
0.000000
 72
0
  7
Normal#0.400000#1.200000
  1
Description
 39
1
 62
0
  0
TEXT
  8
default
  6
CONTINUOUS
 10
283.000000
 20
13.000000
 40
5.000000
 50
0.000000
 72
2
  7
Cursive#0.500000#3.000000
  1
8 1601 09156
 39
2
 62
0
  0
TEXT
  8
default
  6
CONTINUOUS
 10
152.000000
 20
13.000000
 40
5.000000
 50
0.000000
 72
0
  7
Cursive#0.500000#3.000000
  1
Texts
 39
2
 62
0
  0
LINE
  8
border
  6
CONTINUOUS
 10
287.000031
 20
10.000061
 11
287.000000
 21
200.000000
 39
2
 62
0
  0
LINE
  8
border
  6
CONTINUOUS
 10
10.000000
 20
200.000000
 11
10.000000
 21
10.000000
 39
2
 62
0
  0
LINE
  8
border
  6
CONTINUOUS
 10
287.000000
 20
200.000000
 11
10.000000
 21
200.000000
 39
2
 62
0
  0
TEXT
  8
default
  6
CONTINUOUS
 10
100.000000
 20
80.000000
 40
3.000000
 50
0.000000
 72
0
  7
Normal#0.600000#1.800000
  1
Ecce quam bonum et quam
 39
1
 62
0
  0
TEXT
  8
default
  6
CONTINUOUS
 10
100.000000
 20
75.800003
 40
3.000000
 50
0.000000
 72
0
  7
Normal#0.600000#1.800000
  1
jucundum abitare fratres in unum.
 39
1
 62
0
  0
TEXT
  8
default
  6
CONTINUOUS
 10
96.071068
 20
87.485283
 40
3.000000
 50
45.000000
 72
0
  7
Normal#0.600000#1.800000
  1
Ecce quam bonum et quam
 39
1
 62
0
  0
TEXT
  8
default
  6
CONTINUOUS
 10
99.040916
 20
84.515434
 40
3.000000
 50
45.000000
 72
0
  7
Normal#0.600000#1.800000
  1
jucundum abitare fratres in unum.
 39
1
 62
0
  0
TEXT
  8
default
  6
CONTINUOUS
 10
88.000000
 20
90.000000
 40
3.000000
 50
90.000000
 72
0
  7
Normal#0.600000#1.800000
  1
Ecce quam bonum et quam
 39
1
 62
0
  0
TEXT
  8
default
  6
CONTINUOUS
 10
92.199997
 20
90.000000
 40
3.000000
 50
90.000000
 72
0
  7
Normal#0.600000#1.800000
  1
jucundum abitare fratres in unum.
 39
1
 62
0
  0
TEXT
  8
default
  6
CONTINUOUS
 10
80.514717
 20
86.071068
 40
3.000000
 50
135.000000
 72
0
  7
Normal#0.600000#1.800000
  1
Ecce quam bonum et quam
 39
1
 62
0
  0
TEXT
  8
default
  6
CONTINUOUS
 10
83.484566
 20
89.040916
 40
3.000000
 50
135.000000
 72
0
  7
Normal#0.600000#1.800000
  1
jucundum abitare fratres in unum.
 39
1
 62
0
  0
TEXT
  8
default
  6
CONTINUOUS
 10
78.000000
 20
78.000000
 40
3.000000
 50
180.000000
 72
0
  7
Normal#0.600000#1.800000
  1
Ecce quam bonum et quam
 39
1
 62
0
  0
TEXT
  8
default
  6
CONTINUOUS
 10
78.000000
 20
82.199997
 40
3.000000
 50
180.000000
 72
0
  7
Normal#0.600000#1.800000
  1
jucundum abitare fratres in unum.
 39
1
 62
0
  0
TEXT
  8
default
  6
CONTINUOUS
 10
81.928932
 20
70.514717
 40
3.000000
 50
225.000000
 72
0
  7
Normal#0.600000#1.800000
  1
Ecce quam bonum et quam
 39
1
 62
0
  0
TEXT
  8
default
  6
CONTINUOUS
 10
78.959084
 20
73.484566
 40
3.000000
 50
225.000000
 72
0
  7
Normal#0.600000#1.800000
  1
jucundum abitare fratres in unum.
 39
1
 62
0
  0
TEXT
  8
default
  6
CONTINUOUS
 10
90.000000
 20
68.000000
 40
3.000000
 50
270.000000
 72
0
  7
Normal#0.600000#1.800000
  1
Ecce quam bonum et quam
 39
1
 62
0
  0
TEXT
  8
default
  6
CONTINUOUS
 10
85.800003
 20
68.000000
 40
3.000000
 50
270.000000
 72
0
  7
Normal#0.600000#1.800000
  1
jucundum abitare fratres in unum.
 39
1
 62
0
  0
LINE
  8
default
  6
DASHDOT
 10
45.000000
 20
188.125000
 11
45.000000
 21
148.125000
 39
2
 62
12
  0
TEXT
  8
default
  6
CONTINUOUS
 10
45.000000
 20
178.750000
 40
6.250000
 50
0.000000
 72
0
  7
Normal#1.250000#3.750000
  1
Example
 39
2
 62
0
  0
TEXT
  8
default
  6
CONTINUOUS
 10
45.000000
 20
166.250000
 40
6.250000
 50
0.000000
 72
1
  7
Normal#1.250000#3.750000
  1
Example
 39
2
 62
0
  0
TEXT
  8
default
  6
CONTINUOUS
 10
45.000000
 20
153.750000
 40
6.250000
 50
0.000000
 72
2
  7
Normal#1.250000#3.750000
  1
Example
 39
2
 62
0
  0
LINE
  8
default
  6
DASHDOT
 10
225.000000
 20
140.000000
 11
172.500000
 21
140.000000
 39
2
 62
12
  0
LINE
  8
default
  6
DASHDOT
 10
225.000000
 20
87.500000
 11
225.000000
 21
140.000000
 39
2
 62
12
  0
LINE
  8
default
  6
DASHDOT
 10
225.000000
 20
140.000000
 11
225.000000
 21
192.500000
 39
2
 62
12
  0
LINE
  8
default
  6
DASHDOT
 10
225.000000
 20
140.000000
 11
277.500000
 21
140.000000
 39
2
 62
12
  0
ARC
  8
default
  6
DOT
 10
225.000000
 20
140.000000
 40
37.500000
 50
0.000000
 51
180.000000
 39
0
 62
12
  0
ARC
  8
default
  6
DOT
 10
225.000000
 20
140.000000
 40
45.000000
 50
180.000000
 51
0.000000
 39
0
 62
12
  0
TEXT
  8
default
  6
CONTINUOUS
 10
225.000000
 20
140.000000
 40
7.500000
 50
90.000000
 72
1
  7
Normal_ri#37.500000#1.500000#4.500000
  1
Text
 39
2
 62
0
  0
TEXT
  8
default
  6
CONTINUOUS
 10
225.000000
 20
140.000000
 40
7.500000
 50
135.000000
 72
1
  7
Normal_ri#37.500000#1.500000#4.500000
  1
Text
 39
2
 62
0
  0
TEXT
  8
default
  6
CONTINUOUS
 10
225.000000
 20
140.000000
 40
7.500000
 50
45.000000
 72
1
  7
Normal_ri#37.500000#1.500000#4.500000
  1
Text
 39
2
 62
0
  0
TEXT
  8
default
  6
CONTINUOUS
 10
225.000000
 20
140.000000
 40
7.500000
 50
225.000000
 72
1
  7
Normal_ro#45.000000#1.875000#4.500000
  1
Text
 39
2
 62
0
  0
TEXT
  8
default
  6
CONTINUOUS
 10
225.000000
 20
140.000000
 40
7.500000
 50
270.000000
 72
1
  7
Normal_ro#45.000000#1.875000#4.500000
  1
Text
 39
2
 62
0
  0
TEXT
  8
default
  6
CONTINUOUS
 10
225.000000
 20
140.000000
 40
7.500000
 50
-45.000000
 72
1
  7
Normal_ro#45.000000#1.875000#4.500000
  1
Text
 39
2
 62
0
  0
TEXT
  8
default
  6
CONTINUOUS
 10
110.000000
 20
185.000000
 40
8.000000
 50
0.000000
 72
0
  7
Normal#1.000000#4.800000
  1
Normal
 39
2
 62
1
  0
TEXT
  8
default
  6
CONTINUOUS
 10
110.000000
 20
170.000000
 40
8.000000
 50
0.000000
 72
0
  7
Cursive#0.800000#4.800000
  1
Cursive
 39
2
 62
1
  0
TEXT
  8
default
  6
CONTINUOUS
 10
110.000000
 20
155.000000
 40
8.000000
 50
0.000000
 72
0
  7
Courier#0.800000#4.800000
  1
Courier
 39
2
 62
1
  0
TEXT
  8
default
  6
CONTINUOUS
 10
110.000000
 20
140.000000
 40
8.000000
 50
0.000000
 72
0
  7
Romans#0.800000#4.800000
  1
Romans
 39
2
 62
1
  0
ENDSEC
  0
EOF
